<svg width="44" height="44" viewBox="0 0 44 44" fill="none" xmlns="http://www.w3.org/2000/svg">
<path d="M25.0078 12C25.5601 12 26.0078 11.5523 26.0078 11C26.0078 10.4477 25.5601 10 25.0078 10C24.4555 10 24.0078 10.4477 24.0078 11C24.0078 11.5523 24.4555 12 25.0078 12Z" fill="#CB1B1B"/>
<path d="M33.0078 20C33.5601 20 34.0078 19.5523 34.0078 19C34.0078 18.4477 33.5601 18 33.0078 18C32.4555 18 32.0078 18.4477 32.0078 19C32.0078 19.5523 32.4555 20 33.0078 20Z" fill="#CB1B1B"/>
<path d="M15.0078 14C15.5601 14 16.0078 13.5523 16.0078 13C16.0078 12.4477 15.5601 12 15.0078 12C14.4555 12 14.0078 12.4477 14.0078 13C14.0078 13.5523 14.4555 14 15.0078 14Z" fill="#CB1B1B"/>
<path d="M11.0078 24C11.5601 24 12.0078 23.5523 12.0078 23C12.0078 22.4477 11.5601 22 11.0078 22C10.4555 22 10.0078 22.4477 10.0078 23C10.0078 23.5523 10.4555 24 11.0078 24Z" fill="#CB1B1B"/>
<path d="M25.0078 12C25.5601 12 26.0078 11.5523 26.0078 11C26.0078 10.4477 25.5601 10 25.0078 10C24.4555 10 24.0078 10.4477 24.0078 11C24.0078 11.5523 24.4555 12 25.0078 12Z" stroke="#CB1B1B" stroke-width="4" stroke-linecap="round" stroke-linejoin="round"/>
<path d="M33.0078 20C33.5601 20 34.0078 19.5523 34.0078 19C34.0078 18.4477 33.5601 18 33.0078 18C32.4555 18 32.0078 18.4477 32.0078 19C32.0078 19.5523 32.4555 20 33.0078 20Z" stroke="#CB1B1B" stroke-width="4" stroke-linecap="round" stroke-linejoin="round"/>
<path d="M15.0078 14C15.5601 14 16.0078 13.5523 16.0078 13C16.0078 12.4477 15.5601 12 15.0078 12C14.4555 12 14.0078 12.4477 14.0078 13C14.0078 13.5523 14.4555 14 15.0078 14Z" stroke="#CB1B1B" stroke-width="4" stroke-linecap="round" stroke-linejoin="round"/>
<path d="M11.0078 24C11.5601 24 12.0078 23.5523 12.0078 23C12.0078 22.4477 11.5601 22 11.0078 22C10.4555 22 10.0078 22.4477 10.0078 23C10.0078 23.5523 10.4555 24 11.0078 24Z" stroke="#CB1B1B" stroke-width="4" stroke-linecap="round" stroke-linejoin="round"/>
<path d="M22.0078 2C11.0078 2 2.00781 11 2.00781 22C2.00781 33 11.0078 42 22.0078 42C23.8598 42 25.3038 40.508 25.3038 38.624C25.3038 37.75 24.9438 36.954 24.4298 36.374C23.8498 35.796 23.5538 35.07 23.5538 34.124C23.5462 33.6838 23.6273 33.2466 23.7923 32.8385C23.9573 32.4303 24.2027 32.0595 24.514 31.7482C24.8253 31.4369 25.1961 31.1915 25.6043 31.0265C26.0124 30.8615 26.4496 30.7804 26.8898 30.788H30.8818C36.9838 30.788 41.9918 25.782 41.9918 19.68C41.9378 10.024 32.9298 2 22.0078 2Z" stroke="#CB1B1B" stroke-width="4" stroke-linecap="round" stroke-linejoin="round"/>
</svg>
