<svg width="65" height="65" viewBox="0 0 65 65" fill="none" xmlns="http://www.w3.org/2000/svg">
<path d="M35.6888 45.5803C36.4943 40.7581 40.3741 39.1876 44.542 33.6506C49.6963 26.803 50.9638 22.6993 43.7059 12.426C43.478 20.4535 39.3511 25.4949 36.3641 29.8211C33.377 34.1472 30.0841 38.4323 35.6888 45.5803Z" fill="#CB1B1B"/>
<path d="M30.6532 37.3138C30.8431 32.4285 34.4934 30.3805 37.9283 24.3613C42.1763 16.9173 42.9151 12.6864 34.4176 3.41235C35.2057 11.4043 31.7487 16.9267 29.3322 21.5955C26.9156 26.2644 24.1904 30.9311 30.6532 37.3138Z" fill="#CB1B1B"/>
<path d="M35.0659 61.588C31.7286 54.0834 28.1986 51.3172 22.2075 45.9592C15.0257 39.5363 12.61 26.8926 24.6355 16.6488C23.6054 26.9655 22.5213 31.546 29.2666 41.0338C36.0119 50.5215 36.5299 52.2839 35.0659 61.588Z" fill="#CB1B1B"/>
</svg>
