<svg width="24" height="24" viewBox="0 0 24 24" fill="none" xmlns="http://www.w3.org/2000/svg">
<path d="M6.93825 4.50366C7.64175 4.50366 8.27775 4.56216 8.8605 4.69116C9.435 4.82016 9.93075 5.01966 10.3448 5.30091C10.755 5.58216 11.0753 5.94966 11.3055 6.42216C11.5283 6.89091 11.6453 7.47291 11.6453 8.15241C11.6453 8.89041 11.4735 9.51216 11.1375 10.0117C10.7978 10.5119 10.3013 10.9102 9.63375 11.2304C10.5398 11.4922 11.2118 11.9489 11.6573 12.6014C12.1065 13.2614 12.321 14.0504 12.321 14.9609C12.321 15.7109 12.192 16.3514 11.9108 16.8907C11.6407 17.4295 11.2422 17.8936 10.7505 18.2422C10.2698 18.5902 9.69975 18.8399 9.0825 19.0079C8.45967 19.1761 7.8174 19.2616 7.17225 19.2622H0V4.51191H6.9375L6.93825 4.50366ZM16.9425 16.6642C17.3805 17.0942 18.012 17.3089 18.837 17.3084C19.4265 17.3089 19.9355 17.1592 20.364 16.8592C20.79 16.5704 21.0435 16.2494 21.1455 15.9217H23.7315C23.3295 17.1989 22.6845 18.1207 21.8333 18.6719C20.982 19.2307 19.9508 19.4999 18.7552 19.4999C17.9153 19.4999 17.169 19.3709 16.482 19.1017C15.8352 18.8464 15.2495 18.4577 14.763 17.9609C14.298 17.4724 13.9385 16.8827 13.6845 16.1917C13.3035 15.1552 13.3095 14.7427 13.3095 13.9222C13.3095 13.1174 13.446 12.3832 13.716 11.6917C13.9673 11.0278 14.347 10.4199 14.8335 9.90291C15.3293 9.39141 15.8962 9.00816 16.572 8.70741C17.244 8.40666 17.9707 8.27391 18.7905 8.27391C19.701 8.27391 20.4818 8.43816 21.1695 8.79741C21.8226 9.13072 22.3906 9.60921 22.83 10.1962C23.2717 10.7819 23.58 11.4577 23.7712 12.2197C23.9625 12.9697 24.021 13.7587 23.982 14.5987H16.2907C16.2907 15.4387 16.572 16.2314 17.0017 16.6612L16.92 16.6927L16.9425 16.6642ZM6.69975 16.7144C7.01625 16.7144 7.32075 16.6829 7.60575 16.6207C7.87601 16.5679 8.13429 16.4659 8.36775 16.3199C8.5785 16.1872 8.7585 15.9914 8.89125 15.7379C9.02025 15.4994 9.07875 15.1679 9.07875 14.7772C9.07875 14.0272 8.85975 13.4879 8.43825 13.1602C8.0085 12.8399 7.44975 12.6794 6.75075 12.6794H3.23925V16.7302H6.7005V16.6987L6.69975 16.7144ZM20.3092 11.0662C19.9537 10.6792 19.368 10.4722 18.6488 10.4722C18.1838 10.4722 17.7975 10.5464 17.4847 10.7107C17.1969 10.8502 16.9434 11.0515 16.7423 11.3002C16.5625 11.5211 16.4295 11.7763 16.3515 12.0502C16.2819 12.2817 16.2374 12.5201 16.2188 12.7612H20.9805C20.91 12.0112 20.6482 11.4607 20.301 11.0699V11.0819L20.3092 11.0662ZM6.5205 10.4489C7.095 10.4489 7.57125 10.3162 7.94625 10.0387C8.32125 9.76941 8.50125 9.31566 8.50125 8.69916C8.50125 8.35566 8.43075 8.07441 8.32125 7.85541C8.19967 7.64593 8.02772 7.47012 7.821 7.34391C7.5979 7.21422 7.35281 7.12676 7.098 7.08591C6.82113 7.03354 6.53976 7.00867 6.258 7.01166H3.231V10.4489H6.5205ZM15.618 5.49216H21.5865V6.94491H15.618V5.48016V5.49216Z" fill="#CB1B1B"/>
</svg>
