<svg width="61" height="60" viewBox="0 0 61 60" fill="none" xmlns="http://www.w3.org/2000/svg">
<path d="M30.2348 56.25L11.3301 51.0018L7.11719 3.75H53.4091L49.1918 50.9946L30.2348 56.25Z" fill="#264DE4"/>
<path d="M45.5799 47.986L49.1837 7.61328H30.2617V52.2327L45.5799 47.986Z" fill="#2965F1"/>
<path d="M16.7742 25.1389L17.2936 30.9341H30.2622V25.1389H16.7742ZM15.7305 13.4092L16.2572 19.2044H30.2622V13.4092H15.7305ZM30.2622 40.1898L30.2368 40.1965L23.7827 38.4537L23.3701 33.8318H17.5525L18.3643 42.9312L30.2356 46.2265L30.2622 46.2193V40.1898Z" fill="#EBEBEB"/>
<path d="M43.7114 25.1389L44.7575 13.4092H30.2404V19.2044H38.4064L37.8791 25.1389H30.2404V30.9341H37.3766L36.7038 38.4501L30.2402 40.1947V46.2238L42.1209 42.9312L42.208 41.9521L43.57 26.695L43.7114 25.1389Z" fill="white"/>
</svg>
