<svg width="42" height="42" viewBox="0 0 42 42" fill="none" xmlns="http://www.w3.org/2000/svg">
<path d="M20.9792 39.375L7.74592 35.7013L4.79688 2.625H37.2012L34.2491 35.6962L20.9792 39.375Z" fill="#264DE4"/>
<path d="M31.7208 33.59L34.2434 5.3291H20.998V36.5627L31.7208 33.59Z" fill="#2965F1"/>
<path d="M11.5568 17.597L11.9203 21.6537H20.9984V17.597H11.5568ZM10.8262 9.38623L11.1949 13.4429H20.9984V9.38623H10.8262ZM20.9984 28.1326L20.9806 28.1373L16.4627 26.9174L16.1739 23.6821H12.1016L12.6699 30.0517L20.9797 32.3584L20.9984 32.3533V28.1326Z" fill="#EBEBEB"/>
<path d="M30.4142 17.597L31.1464 9.38623H20.9845V13.4429H26.7007L26.3316 17.597H20.9845V21.6537H25.9799L25.5089 26.9149L20.9844 28.1361V32.3565L29.3008 30.0517L29.3618 29.3663L30.3152 18.6863L30.4142 17.597Z" fill="white"/>
</svg>
