<svg width="61" height="60" viewBox="0 0 61 60" fill="none" xmlns="http://www.w3.org/2000/svg">
<g clip-path="url(#clip0_201_1794)">
<path d="M22.0645 60.4688C27.6426 60.4688 32.1426 55.9687 32.1426 50.3906V40.3125H22.0645C16.4863 40.3125 11.9863 44.8125 11.9863 50.3906C11.9863 55.9687 16.4863 60.4688 22.0645 60.4688Z" fill="#0ACF83"/>
<path d="M11.9863 30.2344C11.9863 24.6563 16.4863 20.1562 22.0645 20.1562H32.1426V40.3125H22.0645C16.4863 40.3125 11.9863 35.8125 11.9863 30.2344Z" fill="#A259FF"/>
<path d="M11.9863 10.0781C11.9863 4.5 16.4863 0 22.0645 0H32.1426V20.1562H22.0645C16.4863 20.1562 11.9863 15.6562 11.9863 10.0781Z" fill="#F24E1E"/>
<path d="M32.1426 0H42.2207C47.7988 0 52.2988 4.5 52.2988 10.0781C52.2988 15.6562 47.7988 20.1562 42.2207 20.1562H32.1426V0Z" fill="#FF7262"/>
<path d="M52.2988 30.2344C52.2988 35.8125 47.7988 40.3125 42.2207 40.3125C36.6426 40.3125 32.1426 35.8125 32.1426 30.2344C32.1426 24.6563 36.6426 20.1562 42.2207 20.1562C47.7988 20.1562 52.2988 24.6563 52.2988 30.2344Z" fill="#1ABCFE"/>
</g>
<defs>
<clipPath id="clip0_201_1794">
<rect width="60" height="60" fill="white" transform="translate(0.736328)"/>
</clipPath>
</defs>
</svg>
