<svg width="42" height="42" viewBox="0 0 42 42" fill="none" xmlns="http://www.w3.org/2000/svg">
<path d="M5.73242 33.8882L10.902 0.808563C10.933 0.61087 11.0253 0.427901 11.1659 0.285498C11.3064 0.143095 11.4882 0.0484564 11.6855 0.0149483C11.8828 -0.0185597 12.0856 0.0107567 12.2653 0.0987568C12.445 0.186757 12.5925 0.328993 12.687 0.505376L18.0335 10.4771L20.1643 6.4195C20.2454 6.26559 20.3669 6.13673 20.5158 6.04684C20.6647 5.95695 20.8353 5.90944 21.0093 5.90944C21.1832 5.90944 21.3538 5.95695 21.5027 6.04684C21.6516 6.13673 21.7732 6.26559 21.8542 6.4195L36.2818 33.8882H5.73242Z" fill="#FFA000"/>
<path d="M23.5919 21.0019L18.0309 10.4717L5.73242 33.8877L23.5919 21.0019Z" fill="#F57C00"/>
<path d="M36.2818 33.8872L32.3224 9.38548C32.2931 9.21276 32.2169 9.05143 32.1021 8.91913C31.9872 8.78683 31.8382 8.68867 31.6714 8.63539C31.5045 8.58224 31.3263 8.57598 31.1562 8.6173C30.986 8.65862 30.8305 8.74593 30.7067 8.86967L5.73242 33.8869L19.5514 41.6366C19.9782 41.8748 20.4588 41.9998 20.9476 41.9998C21.4363 41.9998 21.917 41.8748 22.3438 41.6366L36.2818 33.8872Z" fill="#FFCA28"/>
<path d="M32.3235 9.38646C32.2942 9.21374 32.218 9.0524 32.1032 8.9201C31.9884 8.78781 31.8393 8.68964 31.6725 8.63636C31.5057 8.58317 31.3275 8.57687 31.1573 8.61813C30.9872 8.65939 30.8317 8.74663 30.7078 8.87031L25.7508 13.8404L21.853 6.41955C21.772 6.26564 21.6505 6.13678 21.5015 6.04689C21.3526 5.957 21.182 5.90949 21.0081 5.90949C20.8341 5.90949 20.6635 5.957 20.5146 6.04689C20.3657 6.13678 20.2442 6.26564 20.1632 6.41955L18.0323 10.4768L12.6858 0.505424C12.5912 0.328798 12.4434 0.186414 12.2634 0.0984338C12.0834 0.0104535 11.8803 -0.0186638 11.6828 0.0152049C11.4854 0.0490643 11.3037 0.144111 11.1633 0.286903C11.0229 0.429695 10.931 0.613005 10.9005 0.810908L5.73353 33.8882H5.7168L5.7332 33.9072L5.86938 33.9742L30.7006 9.11411C30.8244 8.98973 30.9801 8.90189 31.1506 8.86023C31.3211 8.81858 31.4998 8.82472 31.667 8.87799C31.8343 8.93126 31.9836 9.0296 32.0986 9.16219C32.2136 9.29478 32.2898 9.45651 32.3189 9.6296L36.2449 33.9118L36.283 33.8879L32.3235 9.38646ZM5.77881 33.8429L10.9028 1.04486C10.9333 0.846852 11.0252 0.663435 11.1657 0.520574C11.3061 0.377713 11.4879 0.282646 11.6854 0.24883C11.8829 0.21499 12.0861 0.244156 12.2661 0.332197C12.4461 0.420238 12.5939 0.562691 12.6885 0.739377L18.0343 10.7111L20.1655 6.6535C20.2465 6.49959 20.368 6.37073 20.5169 6.28084C20.6658 6.19095 20.8364 6.14344 21.0104 6.14344C21.1843 6.14344 21.3549 6.19095 21.5038 6.28084C21.6528 6.37073 21.7743 6.49959 21.8553 6.6535L25.674 13.9165L5.77816 33.8429H5.77881Z" fill="white" fill-opacity="0.2"/>
<path opacity="0.2" d="M22.3444 41.4024C21.9176 41.6406 21.437 41.7657 20.9482 41.7657C20.4595 41.7657 19.9788 41.6406 19.5521 41.4024L5.76589 33.675L5.73242 33.8873L19.5514 41.6344C19.9782 41.8726 20.4588 41.9976 20.9476 41.9976C21.4363 41.9976 21.917 41.8726 22.3438 41.6344L36.2825 33.8873L36.2464 33.6675L22.3438 41.403L22.3444 41.4024Z" fill="#A52714"/>
</svg>
