<svg width="61" height="60" viewBox="0 0 61 60" fill="none" xmlns="http://www.w3.org/2000/svg">
<path d="M53.4503 3.69531L49.2257 51.0392L30.2359 56.3056L11.2984 51.0464L7.07812 3.69531H53.4503Z" fill="#E44D26"/>
<path d="M30.2637 52.2796L45.6084 48.024L49.2185 7.56641H30.2637V52.2796Z" fill="#F16529"/>
<path d="M22.0534 19.1824H30.2659V13.375H15.709L15.8479 14.933L17.2748 30.9367H30.2659V25.1293H22.584L22.0534 19.1824ZM23.3618 33.8405H17.5342L18.3474 42.9591L30.2392 46.2613L30.2659 46.254V40.2118L30.2405 40.2186L23.7752 38.4722L23.3618 33.8405Z" fill="#EBEBEB"/>
<path d="M30.2404 30.9367H37.389L36.715 38.4685L30.2402 40.2168V46.2586L42.1415 42.9591L42.2287 41.9779L43.5931 26.6888L43.7347 25.1293H30.2404V30.9367ZM30.2404 19.1682V19.1824H44.263L44.3793 17.8772L44.644 14.933L44.7827 13.375H30.2404V19.1682Z" fill="white"/>
</svg>
