<svg width="42" height="42" viewBox="0 0 42 42" fill="none" xmlns="http://www.w3.org/2000/svg">
<path d="M37.2301 2.58594L34.2729 35.7266L20.98 39.4131L7.7237 35.7317L4.76953 2.58594H37.2301Z" fill="#E44D26"/>
<path d="M21 36.5956L31.7413 33.6167L34.2684 5.29639H21V36.5956Z" fill="#F16529"/>
<path d="M15.2536 13.427H21.0024V9.36182H10.8125L10.9097 10.4524L11.9086 21.655H21.0024V17.5898H15.625L15.2536 13.427ZM16.1695 23.6877H12.0901L12.6594 30.0707L20.9837 32.3822L21.0024 32.3771V28.1476L20.9846 28.1523L16.4588 26.9298L16.1695 23.6877Z" fill="white"/>
<path d="M20.9845 21.655H25.9885L25.5167 26.9273L20.9844 28.151V32.3803L29.3153 30.0707L29.3763 29.3838L30.3314 18.6815L30.4305 17.5898H20.9845V21.655ZM20.9845 13.4171V13.427H30.8003L30.8817 12.5133L31.067 10.4524L31.1641 9.36182H20.9845V13.4171Z" fill="white"/>
</svg>
