<svg width="42" height="42" viewBox="0 0 42 42" fill="none" xmlns="http://www.w3.org/2000/svg">
<g clip-path="url(#clip0_217_1994)">
<path d="M0 0H42V42H0V0Z" fill="#F7DF1E"/>
<path d="M11.0431 35.0985L14.2571 33.1534C14.8773 34.2528 15.4413 35.183 16.7943 35.183C18.0913 35.183 18.9091 34.6757 18.9091 32.7024V19.2824H22.856V32.7582C22.856 36.8461 20.4597 38.7069 16.9635 38.7069C13.8061 38.7069 11.9734 37.0717 11.043 35.0982M24.9998 34.6756L28.2134 32.8149C29.0595 34.1965 30.159 35.2114 32.1042 35.2114C33.7397 35.2114 34.7825 34.3937 34.7825 33.2659C34.7825 31.9127 33.7112 31.4334 31.9068 30.6442L30.9203 30.2209C28.0727 29.009 26.1838 27.4865 26.1838 24.2725C26.1838 21.3122 28.4392 19.0566 31.9634 19.0566C34.4726 19.0566 36.2769 19.9308 37.5737 22.2144L34.5005 24.188C33.8237 22.9758 33.091 22.4965 31.9632 22.4965C30.8072 22.4965 30.0742 23.2296 30.0742 24.188C30.0742 25.3721 30.8073 25.8516 32.4987 26.5846L33.4854 27.0074C36.8405 28.4454 38.7293 29.9113 38.7293 33.2097C38.7293 36.7623 35.9383 38.7074 32.1887 38.7074C28.5237 38.7074 26.1554 36.9595 24.9996 34.6757" fill="black"/>
</g>
<defs>
<clipPath id="clip0_217_1994">
<rect width="42" height="42" fill="white"/>
</clipPath>
</defs>
</svg>
