<svg width="61" height="60" viewBox="0 0 61 60" fill="none" xmlns="http://www.w3.org/2000/svg">
<g clip-path="url(#clip0_201_1758)">
<path d="M0.263672 0H60.2637V60H0.263672V0Z" fill="#F7DF1E"/>
<path d="M16.0393 50.1411L20.6307 47.3623C21.5166 48.9329 22.3224 50.2618 24.2553 50.2618C26.108 50.2618 27.2764 49.5371 27.2764 46.718V27.5466H32.9148V46.7977C32.9148 52.6376 29.4915 55.2959 24.497 55.2959C19.9864 55.2959 17.3682 52.9599 16.0391 50.1406M35.9773 49.5369L40.5683 46.8788C41.777 48.8525 43.3477 50.3023 46.1265 50.3023C48.463 50.3023 49.9527 49.1342 49.9527 47.5231C49.9527 45.59 48.4222 44.9051 45.8445 43.7778L44.4352 43.1731C40.3672 41.4418 37.6688 39.2668 37.6688 34.6754C37.6688 30.4463 40.8908 27.2241 45.9254 27.2241C49.5099 27.2241 52.0876 28.4729 53.9401 31.7351L49.5498 34.5547C48.583 32.8229 47.5363 32.1383 45.9252 32.1383C44.2738 32.1383 43.2266 33.1854 43.2266 34.5547C43.2266 36.2462 44.2738 36.9312 46.6902 37.9784L48.0997 38.5824C52.8927 40.6367 55.591 42.7308 55.591 47.4427C55.591 52.5179 51.6038 55.2966 46.2472 55.2966C41.0115 55.2966 37.6283 52.7996 35.9771 49.5371" fill="black"/>
</g>
<defs>
<clipPath id="clip0_201_1758">
<rect width="60" height="60" fill="white" transform="translate(0.263672)"/>
</clipPath>
</defs>
</svg>
