<svg width="42" height="42" viewBox="0 0 42 42" fill="none" xmlns="http://www.w3.org/2000/svg">
<g clip-path="url(#clip0_217_2074)">
<path d="M12.4942 25.5772L13.7706 29.7188C14.0574 30.6591 14.177 31.3155 14.1291 31.6896C14.8271 29.82 15.3149 27.7825 15.5924 25.5772H17.1272C16.4672 29.1675 15.5969 31.7764 14.5164 33.4039C13.6746 34.658 12.7524 35.2851 11.7482 35.2851C11.4804 35.2851 11.1503 35.2042 10.7586 35.0436V34.1781C10.95 34.2062 11.1745 34.2212 11.4328 34.2212C11.9012 34.2211 12.279 34.0914 12.5661 33.8322C12.9101 33.5165 13.0823 33.1616 13.0823 32.7683C13.0823 32.4997 12.948 31.9485 12.6806 31.1148L10.9022 25.5772H12.4942ZM2.72532 23.0317L5.06321 30.1648H5.07765L7.4299 23.0317H9.35173C9.77255 26.5693 10.0211 29.806 10.0974 32.7398H8.47711C8.42002 29.9973 8.2623 27.4183 8.00395 25.0026H7.98984L5.52251 32.7398H4.28859L1.83619 25.0026H1.82175C1.63991 27.3226 1.52518 29.9016 1.47755 32.7398H0C0.0954844 29.2879 0.334441 26.0522 0.716871 23.0317H2.72532Z" fill="#00758F"/>
<path d="M28.9165 22.8873C31.4314 22.8873 32.6888 24.494 32.6888 27.7057C32.6888 29.451 32.3107 30.7693 31.5551 31.66C31.4189 31.8227 31.2684 31.9633 31.1099 32.0936L32.8896 32.9735L32.8878 32.9734L32.2559 34.0646L29.9383 32.7123C29.5541 32.8261 29.1316 32.883 28.6708 32.883C27.436 32.883 26.5137 32.5231 25.9039 31.8043C25.2345 31.009 24.9 29.7572 24.9 28.0507C24.9 26.3153 25.2775 25.002 26.0333 24.1102C26.7217 23.2945 27.6829 22.8873 28.9165 22.8873ZM21.2154 22.9013C22.1143 22.9013 22.9315 23.1418 23.6677 23.6211L23.2938 24.4543C22.6639 24.1866 22.0428 24.0521 21.4304 24.0521C20.9334 24.0521 20.5505 24.1717 20.2836 24.4124C20.0152 24.651 19.8491 24.9579 19.8491 25.3321C19.8491 25.9072 20.2588 26.4059 21.0152 26.8272C21.263 26.9626 21.51 27.0996 21.756 27.2382L21.8125 27.27L21.8408 27.2859L21.8973 27.3176L21.9255 27.3335L21.9819 27.3654C22.5545 27.6882 23.0933 27.9963 23.0933 27.9963C23.8496 28.5332 24.2266 29.1056 24.2266 30.0484C24.2266 30.8717 23.9249 31.5476 23.3235 32.0764C22.7216 32.6029 21.913 32.8669 20.9004 32.8669C19.9534 32.8669 19.0355 32.563 18.1465 31.9604L18.5624 31.1265C19.3275 31.51 20.0198 31.7015 20.6415 31.7015C21.2246 31.7015 21.681 31.5714 22.0112 31.3143C22.3407 31.0553 22.5382 30.6941 22.5382 30.2361C22.5382 29.6597 22.1372 29.1669 21.4016 28.7536C21.1714 28.6264 20.9419 28.498 20.713 28.3683L20.6566 28.3364C20.5531 28.2779 20.4489 28.2187 20.3467 28.1607L20.2914 28.1292C19.7947 27.8467 19.3652 27.5998 19.3652 27.5998C18.6299 27.0619 18.2612 26.4849 18.2612 25.5339C18.2612 24.7475 18.5361 24.1119 19.0853 23.6283C19.6357 23.1436 20.3458 22.9013 21.2154 22.9013ZM35.6443 23.0313V31.5451H38.699V32.7393H34.0951V23.0313L35.6443 23.0313ZM40.3964 31.5488V31.7506H40.0606V32.7383H39.8038V31.7506H39.4549V31.5488H40.3964ZM41.0166 31.5488L41.339 32.3596L41.6352 31.5488H41.9992V32.7383H41.7572V31.833L41.4201 32.7383H41.2456L40.9079 31.833H40.8949V32.7383H40.666V31.5488H41.0166ZM28.7584 24.0812C27.2764 24.0812 26.535 25.3043 26.535 27.7488C26.535 29.1491 26.7315 30.1644 27.1237 30.7973C27.4869 31.383 28.0558 31.6753 28.8304 31.6753C30.3124 31.6753 31.0537 30.4427 31.0537 27.9786C31.0537 26.598 30.8572 25.5913 30.4655 24.9581C30.1019 24.3737 29.5332 24.0812 28.7585 24.0812" fill="#F29111"/>
<path d="M24.8727 7.28709C25.3643 6.0791 27.0832 6.99391 27.7503 7.41588C27.9138 7.52145 28.1013 7.74449 28.2888 7.82694C28.5812 7.83842 28.8734 7.86131 29.1663 7.87353C29.7158 8.00265 30.2305 8.10814 30.6634 8.35472C32.6755 9.53967 33.9853 10.7472 35.1907 12.7417C35.4483 13.1641 35.577 13.6213 35.7874 14.0785C36.0795 14.7599 36.4076 15.4752 36.7465 16.1196C36.8983 16.425 37.0157 16.7647 37.2264 17.0227C37.3087 17.1407 37.5424 17.1755 37.6821 17.2459C38.0683 17.4458 38.5362 17.5976 38.8994 17.8322C39.5778 18.2552 40.2336 18.7592 40.8298 19.2751C41.052 19.4743 41.2035 19.7562 41.4152 19.9669V20.0732C41.2272 20.1309 41.04 20.1899 40.8525 20.2373C40.4431 20.3424 40.0804 20.3187 39.6832 20.4239C39.4378 20.4951 39.1331 20.589 38.8757 20.6129L38.8994 20.6369C39.0509 21.0696 39.8702 21.4215 40.2449 21.6803C40.7 22.0087 41.1217 22.4071 41.4612 22.8646C41.5784 22.9813 41.6956 23.0875 41.8123 23.2039C41.8938 23.3219 41.9168 23.4745 41.9993 23.5796V23.6152C41.9079 23.583 41.8422 23.5215 41.78 23.4572L41.7428 23.4184C41.7056 23.3798 41.6682 23.3419 41.6254 23.3107C41.3672 23.1343 41.1108 22.9233 40.8525 22.7593C40.4086 22.4776 39.8937 22.3141 39.4378 22.0314C39.1801 21.8672 38.9344 21.6803 38.6887 21.4924C38.466 21.3278 38.2207 21.0117 38.0808 20.777C37.9983 20.6474 37.987 20.4951 37.8928 20.4013C37.9097 20.2447 38.0531 20.1982 38.1979 20.16L38.2312 20.1512C38.2812 20.1383 38.3301 20.1253 38.3727 20.1082C38.9809 19.8499 39.706 19.7562 40.6423 19.7797C40.607 19.5446 40.022 19.2517 39.8352 19.1109C39.4603 18.8407 39.0633 18.5588 38.6657 18.3128C38.4549 18.184 38.0918 18.09 37.8583 17.9848C37.5424 17.8557 36.8403 17.7266 36.6652 17.4807C36.3679 17.093 36.1543 16.6306 35.9469 16.1635L35.8905 16.036L35.8338 15.9087C35.5887 15.3462 35.2842 14.7597 35.0386 14.1838C34.9101 13.9028 34.8511 13.6562 34.7104 13.3868C33.8567 11.7332 32.5932 10.3487 31.0613 9.37511C30.5578 9.05831 29.9965 8.76513 29.3768 8.56587C29.0257 8.45981 28.6042 8.51846 28.23 8.43708H27.9838C27.7736 8.37786 27.5982 8.15506 27.4342 8.03759C27.072 7.79166 26.7093 7.62653 26.2761 7.45107C26.1244 7.38069 25.691 7.21679 25.5397 7.34582C25.4461 7.36936 25.3986 7.40472 25.3755 7.49873C25.2823 7.639 25.3643 7.85031 25.4223 7.97968C25.598 8.35456 25.8434 8.57736 26.0662 8.89416C26.2644 9.17512 26.5106 9.49192 26.6511 9.79741C26.9543 10.4541 27.0955 11.1816 27.3764 11.8382C27.4806 12.0851 27.6454 12.3661 27.7971 12.5888C27.9256 12.7655 28.1593 12.8933 28.23 13.1171C28.371 13.3517 28.0191 14.1259 27.9376 14.3717C27.6329 15.3337 27.6919 16.6709 28.0429 17.5047L28.0616 17.5487L28.0803 17.5932C28.2084 17.8987 28.3455 18.2275 28.6862 18.3129C28.7097 18.2896 28.6862 18.3018 28.7327 18.2896C28.8152 17.6442 28.8384 17.0226 29.0609 16.5177C29.1894 16.2019 29.4461 15.9787 29.622 15.721C29.7393 15.7912 29.7393 16.0029 29.8092 16.143C29.9615 16.5064 30.125 16.9048 30.3127 17.2693C30.6979 18.0199 31.1313 18.7476 31.6224 19.4042C31.7869 19.6387 32.0203 19.8968 32.2308 20.1081C32.3246 20.1899 32.4296 20.2371 32.5 20.3424H32.523V20.3778C32.1721 20.2484 31.9496 19.8854 31.6697 19.6734C31.1427 19.275 30.5117 18.6766 30.1484 18.1025C29.9965 17.7729 29.8323 17.457 29.6685 17.129V17.1053C29.5986 17.199 29.622 17.292 29.587 17.4338C29.4351 18.0199 29.5521 18.6885 29.0257 18.8993C28.429 19.1463 27.9839 18.5009 27.7971 18.2077C27.2002 17.2343 27.0367 15.5922 27.4576 14.2666C27.5512 13.9732 27.5639 13.6213 27.7271 13.387C27.6918 13.1752 27.5286 13.1173 27.4342 12.9875C27.2704 12.7657 27.1303 12.5073 27.002 12.261C26.7558 11.7798 26.5806 11.2048 26.3936 10.6888C26.3114 10.478 26.2879 10.2665 26.2059 10.067C26.0661 9.76246 25.8085 9.45698 25.6097 9.18759C25.3406 8.8004 24.5567 8.04998 24.8727 7.28709ZM28.7094 9.58519C28.7407 9.61653 28.7784 9.64393 28.8175 9.67092L28.8646 9.70324C28.9273 9.74671 28.9881 9.79249 29.0253 9.85483C29.0844 9.93735 29.0954 10.0188 29.1661 10.1015C29.1661 10.3834 29.0844 10.5709 28.9194 10.6877C28.9194 10.6877 28.9082 10.7 28.8966 10.7115C28.8031 10.5235 28.7212 10.3366 28.627 10.1488C28.511 9.98493 28.347 9.85491 28.2525 9.66763H28.2298V9.64409C28.371 9.60923 28.511 9.58519 28.7094 9.58519Z" fill="#00758F"/>
</g>
<defs>
<clipPath id="clip0_217_2074">
<rect width="42" height="28.6289" fill="white" transform="translate(0 6.68555)"/>
</clipPath>
</defs>
</svg>
