<svg width="61" height="60" viewBox="0 0 61 60" fill="none" xmlns="http://www.w3.org/2000/svg">
<g clip-path="url(#clip0_201_1789)">
<path d="M56.1671 29.7069C56.1644 24.1983 54.3619 18.8416 51.0341 14.4519C47.7063 10.0622 43.0353 6.88001 37.7322 5.38972C32.4292 3.89943 26.7844 4.18264 21.6571 6.19624C16.5298 8.20984 12.2008 11.8436 9.32904 16.5443C6.4573 21.245 5.20008 26.7553 5.74875 32.2364C6.29741 37.7176 8.62191 42.8693 12.3684 46.9076C16.1149 50.9458 21.0783 53.6493 26.503 54.6067C31.9277 55.564 37.5166 54.7227 42.4191 52.2109C43.7776 53.0472 45.3337 53.5083 46.9285 53.5471C48.5234 53.5858 50.1 53.2009 51.4976 52.4316C52.8952 51.6623 54.0637 50.536 54.884 49.1677C55.7043 47.7994 56.1471 46.2381 56.1671 44.6429C56.1694 42.6811 55.5161 40.7748 54.3111 39.2269C55.5404 36.2036 56.1707 32.9704 56.1671 29.7069ZM30.8831 50.6789C19.7191 50.6789 10.6711 41.2909 10.6711 29.7069C10.6711 18.1229 19.7191 8.71886 30.8831 8.71886C42.0471 8.71886 51.0951 18.1189 51.0951 29.7069C51.0984 31.9157 50.7625 34.112 50.0991 36.2189C49.1548 35.898 48.1643 35.7345 47.1671 35.7349C44.7925 35.7232 42.5104 36.655 40.8227 38.3254C39.135 39.9959 38.1798 42.2683 38.1671 44.6429C38.1652 46.1002 38.5254 47.5351 39.2151 48.8189C36.6093 50.0469 33.7637 50.6822 30.8831 50.6789ZM52.9991 44.6549C52.9923 45.4139 52.836 46.1642 52.5393 46.8628C52.2425 47.5615 51.811 48.1949 51.2694 48.7268C50.7279 49.2587 50.0869 49.6787 49.383 49.9628C48.6791 50.247 47.9261 50.3897 47.1671 50.3829C46.6707 50.3831 46.1762 50.3213 45.6951 50.1989C44.9006 49.9977 44.1576 49.6307 43.5151 49.1219C42.8726 48.6131 42.345 47.9741 41.9671 47.2469C41.5507 46.4464 41.3338 45.5572 41.3351 44.6549C41.3419 43.8958 41.4981 43.1455 41.7949 42.4469C42.0917 41.7482 42.5231 41.1148 43.0647 40.5829C43.6063 40.051 44.2473 39.631 44.9512 39.3469C45.6551 39.0627 46.408 38.92 47.1671 38.9269C47.7594 38.9268 48.3484 39.0144 48.9151 39.1869C49.7519 39.4436 50.5199 39.886 51.1619 40.4809C51.8039 41.0759 52.3034 41.808 52.6231 42.6229C52.8728 43.2712 53.0003 43.9601 52.9991 44.6549Z" fill="#7E67EE"/>
</g>
<defs>
<clipPath id="clip0_201_1789">
<rect width="60" height="60" fill="white" transform="translate(0.736328)"/>
</clipPath>
</defs>
</svg>
