<svg width="42" height="42" viewBox="0 0 42 42" fill="none" xmlns="http://www.w3.org/2000/svg">
<g clip-path="url(#clip0_217_2025)">
<path d="M38.8007 20.795C38.7989 16.939 37.5371 13.1893 35.2077 10.1165C32.8782 7.04372 29.6085 4.8162 25.8964 3.773C22.1842 2.72979 18.2328 2.92804 14.6437 4.33756C11.0546 5.74709 8.02434 8.29069 6.01412 11.5812C4.0039 14.8717 3.12385 18.7289 3.50791 22.5657C3.89198 26.4025 5.51913 30.0087 8.14169 32.8355C10.7643 35.6623 14.2386 37.5547 18.0359 38.2249C21.8332 38.895 25.7454 38.3061 29.1771 36.5478C30.1281 37.1332 31.2174 37.456 32.3338 37.4831C33.4502 37.5103 34.5538 37.2408 35.5321 36.7023C36.5104 36.1638 37.3284 35.3754 37.9026 34.4176C38.4768 33.4598 38.7867 32.3668 38.8007 31.2502C38.8024 29.877 38.3451 28.5426 37.5015 27.459C38.362 25.3427 38.8033 23.0795 38.8007 20.795ZM21.1019 35.4754C13.2871 35.4754 6.95354 28.9038 6.95354 20.795C6.95354 12.6862 13.2871 6.1034 21.1019 6.1034C28.9167 6.1034 35.2503 12.6834 35.2503 20.795C35.2527 22.3412 35.0176 23.8786 34.5531 25.3534C33.8922 25.1288 33.1988 25.0144 32.5007 25.0146C30.8385 25.0064 29.2411 25.6587 28.0597 26.828C26.8783 27.9973 26.2096 29.588 26.2007 31.2502C26.1995 32.2703 26.4515 33.2748 26.9343 34.1734C25.1103 35.033 23.1184 35.4777 21.1019 35.4754ZM36.5831 31.2586C36.5784 31.7899 36.469 32.3151 36.2613 32.8042C36.0535 33.2933 35.7515 33.7366 35.3724 34.1089C34.9933 34.4813 34.5446 34.7753 34.0519 34.9742C33.5592 35.1731 33.0321 35.273 32.5007 35.2682C32.1533 35.2683 31.8071 35.2251 31.4703 35.1394C30.9142 34.9986 30.3941 34.7417 29.9444 34.3855C29.4946 34.0294 29.1253 33.5821 28.8607 33.073C28.5693 32.5127 28.4175 31.8902 28.4183 31.2586C28.4231 30.7273 28.5325 30.2021 28.7402 29.713C28.948 29.2239 29.25 28.7806 29.6291 28.4083C30.0082 28.0359 30.4569 27.7419 30.9496 27.543C31.4423 27.3441 31.9694 27.2442 32.5007 27.249C32.9154 27.2489 33.3277 27.3103 33.7243 27.431C34.3101 27.6107 34.8477 27.9204 35.2971 28.3368C35.7465 28.7533 36.0962 29.2658 36.3199 29.8362C36.4948 30.29 36.584 30.7723 36.5831 31.2586Z" fill="#7E67EE"/>
</g>
<defs>
<clipPath id="clip0_217_2025">
<rect width="42" height="42" fill="white"/>
</clipPath>
</defs>
</svg>
