<svg width="61" height="60" viewBox="0 0 61 60" fill="none" xmlns="http://www.w3.org/2000/svg">
<g clip-path="url(#clip0_201_1800)">
<path d="M11.3615 0.750977H50.1112C55.9865 0.750977 60.7363 5.50082 60.7363 11.3761V48.6258C60.7363 54.5011 55.9865 59.251 50.1112 59.251H11.3615C5.48617 59.251 0.736328 54.5011 0.736328 48.6258V11.3761C0.736328 5.50082 5.48617 0.750977 11.3615 0.750977Z" fill="#001E36"/>
<path d="M22.2365 15.624C21.4865 15.624 20.7365 15.624 19.9616 15.6493C19.1863 15.6742 18.4612 15.6742 17.7862 15.6995C17.1112 15.7243 16.4863 15.7243 15.8863 15.7492C15.3112 15.774 14.9113 15.774 14.4862 15.774C14.3113 15.774 14.2363 15.8739 14.2363 16.0492V41.7742C14.2363 41.9992 14.3362 42.0995 14.5363 42.0995H19.3865C19.5613 42.0742 19.6865 41.9242 19.6612 41.7493V33.7243C20.136 33.7243 20.4862 33.7243 20.7365 33.7492C20.9863 33.774 21.3862 33.774 21.9862 33.774C24.0365 33.774 25.9115 33.549 27.6112 32.9242C29.2363 32.3242 30.6365 31.2742 31.6363 29.874C32.6363 28.474 33.1363 26.699 33.1363 24.549C33.1363 23.424 32.9366 22.3492 32.5616 21.2992C32.1643 20.2294 31.5418 19.2575 30.7363 18.4492C29.7856 17.5256 28.6412 16.8252 27.3862 16.3989C25.986 15.8739 24.2863 15.624 22.2365 15.624ZM22.7943 20.5482C23.6849 20.5651 24.5521 20.7207 25.3612 21.0489C26.0863 21.324 26.6863 21.8242 27.1115 22.4739C27.5102 23.1463 27.7097 23.9181 27.6866 24.6995C27.6866 25.7992 27.4363 26.6495 26.9113 27.2743C26.361 27.8992 25.6612 28.3745 24.8615 28.5995C23.9362 28.8995 22.9612 29.049 21.9862 29.049H20.661C20.361 29.049 20.0366 29.0242 19.6865 28.9993V20.5993C19.8613 20.574 20.2115 20.5492 20.7116 20.5745C21.1865 20.5492 21.7612 20.5492 22.4113 20.5492C22.5395 20.5461 22.6671 20.5457 22.7943 20.5482ZM43.7615 21.8246C41.9863 21.8246 40.5112 22.0993 39.3365 22.6993C38.2616 23.1995 37.3363 23.9992 36.7115 24.999C36.1616 25.9243 35.8612 26.949 35.8612 28.0243C35.8398 28.9087 36.0374 29.7847 36.4363 30.5743C36.9039 31.4151 37.5531 32.141 38.3366 32.6992C39.4364 33.4514 40.6298 34.0565 41.8865 34.4992C43.1113 34.974 43.9363 35.349 44.3366 35.6739C44.7365 35.9992 44.9366 36.324 44.9366 36.6742C44.9366 37.1242 44.6615 37.5493 44.2616 37.7242C43.8116 37.9492 43.1366 38.0743 42.1865 38.0743C41.1866 38.0743 40.1863 37.9492 39.2362 37.6993C38.1452 37.4557 37.0992 37.0424 36.1363 36.4745C36.0613 36.4243 35.9863 36.3995 35.9113 36.4496C35.8363 36.4993 35.8115 36.5992 35.8115 36.6742V41.0242C35.7866 41.2243 35.9113 41.3992 36.0866 41.499C36.8974 41.8778 37.7549 42.1468 38.6366 42.2992C39.7616 42.5242 40.8862 42.624 42.036 42.624C43.836 42.624 45.3365 42.3493 46.5613 41.8243C47.6863 41.3743 48.6613 40.5995 49.3612 39.5992C50.0166 38.6158 50.3567 37.456 50.3362 36.2743C50.3608 35.3817 50.1634 34.4969 49.7615 33.6995C49.2862 32.8492 48.6112 32.1493 47.7862 31.6243C46.5793 30.8664 45.287 30.2537 43.9363 29.799C43.3332 29.5494 42.7409 29.2741 42.1612 28.974C41.8363 28.7992 41.5363 28.5742 41.3113 28.299C41.1613 28.0989 41.0615 27.8743 41.0615 27.6493C41.0615 27.4243 41.1365 27.1745 41.2612 26.9743C41.4365 26.7245 41.7112 26.5492 42.036 26.4742C42.5113 26.3495 43.0363 26.274 43.536 26.2989C44.4862 26.2989 45.411 26.424 46.3363 26.6242C47.1866 26.799 47.9863 27.0742 48.7363 27.4745C48.8362 27.5242 48.9613 27.5242 49.1863 27.4745C49.2254 27.4455 49.2571 27.4078 49.2788 27.3643C49.3006 27.3208 49.3118 27.2728 49.3115 27.2242V23.1493C49.3115 23.049 49.2862 22.9492 49.2613 22.8493C49.2112 22.7495 49.1113 22.6492 49.0115 22.6243C48.322 22.3425 47.5995 22.1493 46.8613 22.0492C45.8348 21.8997 44.7988 21.825 43.7615 21.8246Z" fill="#31A8FF"/>
</g>
<defs>
<clipPath id="clip0_201_1800">
<rect width="60" height="60" fill="white" transform="translate(0.736328)"/>
</clipPath>
</defs>
</svg>
