<svg width="42" height="42" viewBox="0 0 42 42" fill="none" xmlns="http://www.w3.org/2000/svg">
<g clip-path="url(#clip0_217_2036)">
<path d="M7.43761 0.525391H34.5624C38.6751 0.525391 42 3.85028 42 7.963V34.0378C42 38.1505 38.6751 41.4754 34.5624 41.4754H7.43761C3.32489 41.4754 0 38.1505 0 34.0378V7.963C0 3.85028 3.32489 0.525391 7.43761 0.525391Z" fill="#001E36"/>
<path d="M15.0513 10.937C14.5263 10.937 14.0013 10.937 13.4589 10.9547C12.9162 10.9721 12.4086 10.9721 11.9361 10.9898C11.4636 11.0072 11.0262 11.0072 10.6062 11.0246C10.2036 11.042 9.92367 11.042 9.62606 11.042C9.50367 11.042 9.45117 11.1119 9.45117 11.2346V29.2421C9.45117 29.3996 9.52106 29.4698 9.66117 29.4698H13.0563C13.1787 29.4521 13.2663 29.3471 13.2486 29.2247V23.6072C13.581 23.6072 13.8261 23.6072 14.0013 23.6246C14.1762 23.642 14.4561 23.642 14.8761 23.642C16.3113 23.642 17.6238 23.4845 18.8136 23.0471C19.9512 22.6271 20.9313 21.8921 21.6312 20.912C22.3312 19.932 22.6812 18.6895 22.6812 17.1845C22.6812 16.397 22.5414 15.6446 22.2789 14.9096C22.0007 14.1608 21.565 13.4805 21.0012 12.9146C20.3357 12.2681 19.5346 11.7778 18.6561 11.4794C17.676 11.1119 16.4862 10.937 15.0513 10.937ZM15.4418 14.384C16.0652 14.3958 16.6722 14.5047 17.2386 14.7344C17.7462 14.927 18.1662 15.2771 18.4638 15.7319C18.7429 16.2026 18.8825 16.7429 18.8664 17.2898C18.8664 18.0596 18.6912 18.6548 18.3237 19.0922C17.9385 19.5296 17.4486 19.8623 16.8888 20.0198C16.2411 20.2298 15.5586 20.3345 14.8761 20.3345H13.9485C13.7385 20.3345 13.5114 20.3171 13.2663 20.2997V14.4197C13.3887 14.402 13.6338 14.3846 13.9839 14.4023C14.3163 14.3846 14.7186 14.3846 15.1737 14.3846C15.2634 14.3824 15.3527 14.3822 15.4418 14.384ZM30.1188 15.2774C28.8762 15.2774 27.8436 15.4697 27.0213 15.8897C26.2689 16.2398 25.6212 16.7996 25.1838 17.4995C24.7989 18.1472 24.5886 18.8645 24.5886 19.6172C24.5736 20.2363 24.7119 20.8495 24.9912 21.4022C25.3185 21.9908 25.7729 22.4989 26.3214 22.8896C27.0912 23.4162 27.9266 23.8397 28.8063 24.1496C29.6637 24.482 30.2412 24.7445 30.5214 24.9719C30.8013 25.1996 30.9414 25.427 30.9414 25.6721C30.9414 25.9871 30.7488 26.2847 30.4689 26.4071C30.1539 26.5646 29.6814 26.6522 29.0163 26.6522C28.3164 26.6522 27.6162 26.5646 26.9511 26.3897C26.1874 26.2192 25.4552 25.9299 24.7812 25.5323C24.7287 25.4972 24.6762 25.4798 24.6237 25.5149C24.5712 25.5497 24.5538 25.6196 24.5538 25.6721V28.7171C24.5364 28.8572 24.6237 28.9796 24.7464 29.0495C25.3139 29.3146 25.9142 29.503 26.5314 29.6096C27.3189 29.7671 28.1061 29.837 28.911 29.837C30.171 29.837 31.2213 29.6447 32.0787 29.2772C32.8662 28.9622 33.5487 28.4198 34.0386 27.7196C34.4974 27.0312 34.7355 26.2194 34.7211 25.3922C34.7383 24.7674 34.6001 24.148 34.3188 23.5898C33.9861 22.9946 33.5136 22.5047 32.9361 22.1372C32.0912 21.6067 31.1867 21.1778 30.2412 20.8595C29.819 20.6848 29.4044 20.4921 28.9986 20.282C28.7712 20.1596 28.5612 20.0021 28.4037 19.8095C28.2987 19.6694 28.2288 19.5122 28.2288 19.3547C28.2288 19.1972 28.2813 19.0223 28.3686 18.8822C28.4913 18.7073 28.6836 18.5846 28.911 18.5321C29.2437 18.4448 29.6112 18.392 29.961 18.4094C30.6261 18.4094 31.2735 18.497 31.9212 18.6371C32.5164 18.7595 33.0762 18.9521 33.6012 19.2323C33.6711 19.2671 33.7587 19.2671 33.9162 19.2323C33.9435 19.2121 33.9657 19.1856 33.9809 19.1552C33.9961 19.1248 34.004 19.0912 34.0038 19.0571V16.2047C34.0038 16.1345 33.9861 16.0646 33.9687 15.9947C33.9336 15.9248 33.8637 15.8546 33.7938 15.8372C33.3111 15.64 32.8054 15.5047 32.2887 15.4346C31.5701 15.33 30.8449 15.2777 30.1188 15.2774Z" fill="#31A8FF"/>
</g>
<defs>
<clipPath id="clip0_217_2036">
<rect width="42" height="42" fill="white"/>
</clipPath>
</defs>
</svg>
