<svg width="42" height="42" viewBox="0 0 42 42" fill="none" xmlns="http://www.w3.org/2000/svg">
<path d="M0 20.9996C0 27.1004 9.40209 32.0466 21 32.0466C32.5979 32.0466 42 27.1004 42 20.9996C42 14.8988 32.5976 9.95264 21 9.95264C9.40242 9.95264 0 14.8988 0 20.9996Z" fill="url(#paint0_radial_217_2065)"/>
<path d="M21 31.2263C32.1448 31.2263 41.1797 26.6473 41.1797 20.9996C41.1797 15.3513 32.1448 10.7729 21 10.7729C9.85523 10.7729 0.820312 15.3513 0.820312 20.9996C0.820312 26.6473 9.85523 31.2263 21 31.2263Z" fill="#777BB3"/>
<path d="M11.4103 22.2687C12.3267 22.2687 13.0106 22.0998 13.4433 21.7667C13.8719 21.4366 14.1675 20.8653 14.3227 20.0687C14.4671 19.3238 14.412 18.8041 14.1587 18.5232C13.9001 18.2364 13.3406 18.091 12.4961 18.091H11.0313L10.2198 22.2687H11.4103ZM6.61999 27.4147C6.58638 27.4147 6.5532 27.4072 6.52283 27.3928C6.49246 27.3784 6.46565 27.3575 6.44432 27.3315C6.42299 27.3056 6.40767 27.2752 6.39947 27.2426C6.39126 27.21 6.39037 27.176 6.39686 27.143L8.54838 16.0728C8.55855 16.021 8.58634 15.9744 8.62702 15.9408C8.66771 15.9072 8.71876 15.8888 8.7715 15.8887H13.4092C14.8668 15.8887 15.9515 16.2844 16.6337 17.065C17.3188 17.8492 17.5308 18.9465 17.2627 20.3249C17.1535 20.8863 16.9658 21.4077 16.7049 21.875C16.4334 22.3556 16.087 22.7899 15.6785 23.1612C15.1762 23.6311 14.6075 23.9724 13.9897 24.1728C13.382 24.371 12.6011 24.4714 11.6698 24.4714H9.79164L9.25549 27.2303C9.24537 27.2822 9.21751 27.329 9.17668 27.3627C9.13586 27.3963 9.08461 27.4147 9.03171 27.4147H6.61999Z" fill="black"/>
<path d="M11.2169 18.3183H12.4936C13.5131 18.3183 13.8672 18.5421 13.9876 18.6756C14.1868 18.8968 14.2248 19.3637 14.0962 20.0249C13.9522 20.7655 13.6851 21.2908 13.3021 21.5854C12.9104 21.8873 12.2725 22.0402 11.4079 22.0402H10.4937L11.2169 18.3183ZM13.4068 15.6605H8.76943C8.66367 15.6605 8.56121 15.6973 8.47957 15.7645C8.39792 15.8317 8.34218 15.9252 8.32186 16.029L6.17035 27.0996C6.15764 27.1655 6.15965 27.2335 6.17624 27.2985C6.19283 27.3636 6.22359 27.4242 6.26631 27.476C6.30903 27.5278 6.36267 27.5696 6.42339 27.5983C6.48412 27.627 6.55043 27.6419 6.61758 27.642H9.0293C9.13504 27.6419 9.23747 27.605 9.31905 27.5378C9.40063 27.4705 9.4563 27.3769 9.47654 27.2732L9.97693 24.6987H11.6671C12.6226 24.6987 13.4272 24.5943 14.0581 24.3889C14.7068 24.1783 15.3037 23.821 15.832 23.3268C16.2574 22.9394 16.6184 22.4867 16.9013 21.9857C17.174 21.4978 17.3702 20.9531 17.4838 20.3678C17.766 18.9165 17.5366 17.7546 16.8026 16.9146C16.0755 16.0821 14.9329 15.6602 13.4068 15.6602V15.6605ZM9.94083 22.4957H11.4079C12.3802 22.4959 13.1043 22.3127 13.5801 21.946C14.0558 21.5799 14.3772 20.9683 14.5441 20.1115C14.7033 19.2886 14.6306 18.708 14.3259 18.3698C14.0207 18.0316 13.41 17.8625 12.4936 17.8625H10.8412L9.94083 22.4957ZM13.4071 16.1153C14.8023 16.1153 15.8198 16.4815 16.4597 17.2138C17.0995 17.9462 17.292 18.9684 17.0372 20.2805C16.9318 20.8212 16.754 21.3154 16.504 21.763C16.2535 22.211 15.9264 22.6208 15.5226 22.9924C15.0413 23.4431 14.5063 23.7641 13.9174 23.9555C13.3287 24.1471 12.5787 24.2428 11.6674 24.2426H9.60155L9.02963 27.1859H6.61791L8.76975 16.1153H13.4071Z" fill="white"/>
<path d="M22.7917 24.4704C22.758 24.4704 22.7248 24.463 22.6944 24.4487C22.664 24.4344 22.6371 24.4135 22.6157 24.3875C22.5943 24.3616 22.5789 24.3312 22.5707 24.2986C22.5624 24.266 22.5614 24.232 22.5679 24.199L23.5194 19.3008C23.6103 18.8348 23.588 18.5008 23.4571 18.3591C23.3767 18.2728 23.1359 18.1281 22.4235 18.1281H20.6989L19.5025 24.2863C19.4923 24.3382 19.4643 24.3848 19.4234 24.4184C19.3825 24.4519 19.3313 24.4701 19.2784 24.4701H16.8864C16.8528 24.4701 16.8196 24.4627 16.7892 24.4484C16.7588 24.4341 16.7319 24.4132 16.7105 24.3873C16.6891 24.3614 16.6737 24.3311 16.6653 24.2986C16.657 24.266 16.656 24.232 16.6623 24.199L18.8141 13.1284C18.8243 13.0766 18.8522 13.0298 18.893 12.9963C18.9338 12.9627 18.9851 12.9443 19.0379 12.9443H21.4299C21.4635 12.9443 21.4967 12.9517 21.5272 12.966C21.5576 12.9803 21.5844 13.0012 21.6058 13.0271C21.6273 13.053 21.6427 13.0833 21.651 13.1158C21.6594 13.1484 21.6604 13.1824 21.6541 13.2154L21.135 15.8876H22.9899C24.4031 15.8876 25.3612 16.1363 25.9194 16.6492C26.488 17.1719 26.6658 18.0076 26.447 19.1341L25.4459 24.2863C25.4356 24.3381 25.4077 24.3847 25.3669 24.4183C25.3261 24.4518 25.2749 24.4701 25.2221 24.4701L22.7917 24.4704Z" fill="black"/>
<path d="M21.4314 12.7163H19.039C18.9332 12.7163 18.8307 12.7531 18.7491 12.8204C18.6674 12.8877 18.6117 12.9813 18.5915 13.0851L16.4399 24.1554C16.4272 24.2214 16.4292 24.2893 16.4457 24.3545C16.4623 24.4196 16.493 24.4802 16.5358 24.5321C16.5785 24.5839 16.6321 24.6257 16.6929 24.6544C16.7536 24.6831 16.82 24.698 16.8872 24.6981H19.2795C19.3853 24.6981 19.4878 24.6613 19.5695 24.594C19.6511 24.5267 19.7069 24.4332 19.7271 24.3293L20.8877 18.3558H22.424C23.1353 18.3558 23.285 18.5077 23.2905 18.5146C23.3338 18.5605 23.3906 18.7755 23.2968 19.2575L22.3452 24.1554C22.3324 24.2214 22.3344 24.2894 22.351 24.3545C22.3676 24.4197 22.3984 24.4803 22.4411 24.5322C22.4839 24.5841 22.5376 24.6258 22.5984 24.6545C22.6592 24.6832 22.7256 24.6981 22.7928 24.6981H25.2235C25.3293 24.698 25.4317 24.6612 25.5133 24.5939C25.5948 24.5266 25.6505 24.4331 25.6708 24.3293L26.6719 19.1777C26.9065 17.9683 26.7057 17.0613 26.0747 16.4815C25.4722 15.9283 24.4636 15.6596 22.991 15.6596H21.4127L21.8789 13.2594C21.8918 13.1933 21.8898 13.1253 21.8733 13.0601C21.8567 12.9949 21.8259 12.9342 21.7832 12.8823C21.7404 12.8304 21.6867 12.7886 21.6259 12.7599C21.565 12.7312 21.4986 12.7163 21.4314 12.7163ZM21.4314 13.1724L20.8595 16.115H22.991C24.3321 16.115 25.2571 16.3491 25.7659 16.8172C26.2752 17.2849 26.4281 18.0429 26.2246 19.0911L25.2232 24.2424H22.7928L23.7447 19.3441C23.8529 18.7869 23.813 18.407 23.6249 18.2042C23.4368 18.0016 23.0367 17.9004 22.4246 17.9004H20.512L19.2795 24.242H16.8868L19.0387 13.1714H21.4314V13.1724Z" fill="white"/>
<path d="M30.2322 22.2687C31.1487 22.2687 31.8328 22.0998 32.2659 21.7667C32.6938 21.4366 32.9898 20.8653 33.145 20.0687C33.2894 19.3238 33.2346 18.8041 32.9809 18.5232C32.7224 18.2364 32.1629 18.091 31.3183 18.091H29.8539L29.0418 22.2687H30.2322ZM25.4429 27.4147C25.4092 27.4148 25.376 27.4074 25.3455 27.393C25.3151 27.3787 25.2882 27.3578 25.2668 27.3318C25.2454 27.3058 25.23 27.2754 25.2218 27.2428C25.2135 27.2101 25.2126 27.1761 25.2191 27.143L27.3706 16.0728C27.3808 16.0209 27.4087 15.9742 27.4495 15.9406C27.4904 15.907 27.5416 15.8887 27.5944 15.8887H32.2318C33.6893 15.8887 34.7741 16.2844 35.456 17.065C36.1414 17.8492 36.3531 18.9465 36.085 20.3249C35.9824 20.8679 35.7942 21.3911 35.5275 21.875C35.256 22.3556 34.9096 22.7899 34.5011 23.1612C33.9991 23.6311 33.4298 23.9724 32.8123 24.1728C32.2046 24.371 31.4236 24.4714 30.4921 24.4714H28.6142L28.0784 27.2303C28.0683 27.2823 28.0404 27.3291 27.9995 27.3628C27.9586 27.3964 27.9073 27.4148 27.8543 27.4147H25.4429Z" fill="black"/>
<path d="M30.0431 18.3183H31.3198C32.3393 18.3183 32.6933 18.5421 32.8134 18.6756C33.0136 18.8968 33.051 19.3637 32.9227 20.0249C32.7783 20.7655 32.5112 21.2908 32.1283 21.5854C31.7362 21.8873 31.0983 22.0402 30.2341 22.0402H29.3199L30.0431 18.3183ZM32.233 15.6605H27.5956C27.4899 15.6606 27.3875 15.6974 27.3059 15.7646C27.2244 15.8318 27.1687 15.9252 27.1484 16.029L24.9965 27.0996C24.9838 27.1655 24.9858 27.2335 25.0024 27.2986C25.019 27.3637 25.0498 27.4243 25.0926 27.4762C25.1353 27.528 25.189 27.5697 25.2498 27.5984C25.3106 27.627 25.3769 27.6419 25.4441 27.642H27.8558C27.9615 27.6419 28.064 27.605 28.1455 27.5378C28.2271 27.4705 28.2828 27.3769 28.303 27.2732L28.8034 24.6987H30.4933C31.4484 24.6987 32.2533 24.5943 32.884 24.3889C33.533 24.1783 34.1299 23.821 34.6585 23.3265C35.0838 22.9392 35.4447 22.4866 35.7275 21.9857C36.0005 21.4978 36.1961 20.9531 36.3099 20.3678C36.5921 18.9165 36.3631 17.7546 35.6288 16.9146C34.9016 16.0821 33.7594 15.6602 32.2327 15.6602L32.233 15.6605ZM28.767 22.4957H30.2337C31.2061 22.4959 31.9303 22.3127 32.4066 21.946C32.8823 21.5799 33.2035 20.9683 33.3699 20.1115C33.5298 19.2886 33.4571 18.708 33.1517 18.3698C32.8464 18.0316 32.2357 17.8625 31.3198 17.8625H29.6677L28.767 22.4957ZM32.233 16.1153C33.6282 16.1153 34.6457 16.4815 35.2855 17.2138C35.9254 17.9462 36.1178 18.9684 35.8627 20.2805C35.7577 20.8212 35.5801 21.3154 35.3298 21.763C35.0796 22.211 34.7523 22.6208 34.3481 22.9924C33.8668 23.4431 33.3318 23.7641 32.7429 23.9555C32.1545 24.1471 31.4046 24.2428 30.4933 24.2426H28.4277L27.8551 27.1859H25.4434L27.5953 16.1153H32.233Z" fill="white"/>
<defs>
<radialGradient id="paint0_radial_217_2065" cx="0" cy="0" r="1" gradientUnits="userSpaceOnUse" gradientTransform="translate(12.6085 13.8363) scale(27.5761)">
<stop stop-color="#AEB2D5"/>
<stop offset="0.3" stop-color="#AEB2D5"/>
<stop offset="0.75" stop-color="#484C89"/>
<stop offset="1" stop-color="#484C89"/>
</radialGradient>
</defs>
</svg>
