<svg width="42" height="42" viewBox="0 0 42 42" fill="none" xmlns="http://www.w3.org/2000/svg">
<path d="M21.0023 24.7405C23.0682 24.7405 24.743 23.0658 24.743 20.9999C24.743 18.934 23.0682 17.2593 21.0023 17.2593C18.9365 17.2593 17.2617 18.934 17.2617 20.9999C17.2617 23.0658 18.9365 24.7405 21.0023 24.7405Z" fill="#61DAFB"/>
<path d="M35.2074 14.8312C34.4855 14.5687 33.7309 14.3062 32.9434 14.0765C33.1402 13.289 33.3043 12.5015 33.4355 11.7468C34.1246 7.41553 33.3699 4.36396 31.2699 3.18271C30.6465 2.82178 29.9574 2.65771 29.1699 2.65771C26.873 2.65771 23.9527 4.36396 20.9996 7.21865C18.0465 4.36396 15.1262 2.65771 12.8293 2.65771C12.0418 2.65771 11.3527 2.82178 10.7293 3.18271C8.6293 4.39678 7.87461 7.44834 8.56367 11.7468C8.69492 12.5015 8.85898 13.289 9.05586 14.0765C8.26836 14.3062 7.51367 14.5358 6.7918 14.8312C2.69023 16.4062 0.458984 18.5718 0.458984 20.9999C0.458984 23.428 2.72305 25.5937 6.7918 27.1687C7.51367 27.4312 8.26836 27.6937 9.05586 27.9233C8.85898 28.7108 8.69492 29.4983 8.56367 30.253C7.87461 34.5843 8.6293 37.6358 10.7293 38.8171C11.3527 39.178 12.0418 39.3421 12.8293 39.3421C15.159 39.3421 18.0793 37.6358 20.9996 34.7812C23.9527 37.6358 26.873 39.3421 29.1699 39.3421C29.9574 39.3421 30.6465 39.178 31.2699 38.8171C33.3699 37.603 34.1246 34.5515 33.4355 30.253C33.3043 29.4983 33.1402 28.7108 32.9434 27.9233C33.7309 27.6937 34.4855 27.464 35.2074 27.1687C39.309 25.5937 41.5402 23.428 41.5402 20.9999C41.5402 18.5718 39.309 16.4062 35.2074 14.8312ZM30.3512 4.82334C31.6965 5.61084 32.1559 8.03896 31.598 11.4843C31.4996 12.1733 31.3355 12.8952 31.1387 13.6499C29.4324 13.2562 27.6277 12.9937 25.7246 12.8296C24.609 11.2546 23.4605 9.84365 22.3121 8.56396C24.7402 6.16865 27.2012 4.52803 29.2027 4.52803C29.6293 4.52803 30.023 4.62646 30.3512 4.82334ZM26.6762 24.2812C26.0855 25.3312 25.3965 26.3812 24.6746 27.4312C23.4605 27.5296 22.2465 27.5624 20.9996 27.5624C19.7199 27.5624 18.5059 27.5296 17.3246 27.4312C16.6027 26.3812 15.9465 25.3312 15.3559 24.2812C14.7324 23.1983 14.1418 22.0827 13.6168 20.9999C14.1418 19.9171 14.7324 18.8015 15.3559 17.7187C15.9465 16.6687 16.6355 15.6187 17.3574 14.5687C18.5715 14.4702 19.7855 14.4374 21.0324 14.4374C22.3121 14.4374 23.5262 14.4702 24.7074 14.5687C25.4293 15.6187 26.0855 16.6687 26.6762 17.7187C27.2996 18.8015 27.8902 19.9171 28.4152 20.9999C27.8574 22.0827 27.2996 23.1655 26.6762 24.2812ZM29.3996 23.1983C29.8918 24.3468 30.2855 25.4624 30.6465 26.578C29.5309 26.8405 28.3496 27.0374 27.1027 27.2015C27.4965 26.578 27.923 25.9218 28.284 25.2327C28.6777 24.5437 29.0387 23.8546 29.3996 23.1983ZM20.9996 32.0905C20.2121 31.2374 19.4574 30.3187 18.7355 29.3671C19.4902 29.3999 20.2449 29.4327 20.9996 29.4327C21.7543 29.4327 22.509 29.3999 23.2637 29.3671C22.5418 30.3187 21.7871 31.2374 20.9996 32.0905ZM14.8965 27.1687C13.6496 27.0046 12.4684 26.8077 11.3527 26.5452C11.7137 25.4624 12.1074 24.314 12.5996 23.1655C12.9605 23.8218 13.3215 24.5108 13.7152 25.1671C14.109 25.889 14.5027 26.5124 14.8965 27.1687ZM12.5996 18.8015C12.1074 17.653 11.7137 16.5374 11.3527 15.4218C12.4684 15.1593 13.6496 14.9624 14.8965 14.7983C14.5027 15.4218 14.0762 16.078 13.7152 16.7671C13.3215 17.4562 12.9605 18.1452 12.5996 18.8015ZM20.9996 9.90928C21.7871 10.7624 22.5418 11.6812 23.2637 12.6327C22.509 12.5999 21.7543 12.5671 20.9996 12.5671C20.2449 12.5671 19.4902 12.5999 18.7355 12.6327C19.4574 11.6812 20.2121 10.7624 20.9996 9.90928ZM28.284 16.7999L27.1027 14.8312C28.3496 14.9952 29.5309 15.1921 30.6465 15.4546C30.2855 16.5374 29.8918 17.6858 29.3996 18.8343C29.0387 18.1452 28.6777 17.4562 28.284 16.7999ZM10.4012 11.4843C9.84336 8.03896 10.3027 5.61084 11.648 4.82334C11.9762 4.62646 12.3699 4.52803 12.7965 4.52803C14.7652 4.52803 17.2262 6.13584 19.6871 8.56396C18.5387 9.81084 17.3902 11.2546 16.2746 12.8296C14.3715 12.9937 12.5668 13.289 10.8605 13.6499C10.6637 12.8952 10.5324 12.1733 10.4012 11.4843ZM2.29648 20.9999C2.29648 19.4577 4.1668 17.8171 7.44805 16.603C8.1043 16.3405 8.82617 16.1108 9.54805 15.914C10.073 17.5546 10.7293 19.2937 11.5168 21.0327C10.7293 22.7718 10.0402 24.478 9.54805 26.1187C5.01992 24.8062 2.29648 22.8374 2.29648 20.9999ZM11.648 37.1765C10.3027 36.389 9.84336 33.9608 10.4012 30.5155C10.4996 29.8265 10.6637 29.1046 10.8605 28.3499C12.5668 28.7437 14.3715 29.0062 16.2746 29.1702C17.3902 30.7452 18.5387 32.1562 19.6871 33.4358C17.259 35.8312 14.798 37.4718 12.7965 37.4718C12.3699 37.4718 11.9762 37.3733 11.648 37.1765ZM31.598 30.5155C32.1559 33.9608 31.6965 36.389 30.3512 37.1765C30.023 37.3733 29.6293 37.4718 29.2027 37.4718C27.234 37.4718 24.773 35.864 22.3121 33.4358C23.4605 32.189 24.609 30.7452 25.7246 29.1702C27.6277 29.0062 29.4324 28.7108 31.1387 28.3499C31.3355 29.1046 31.4668 29.8265 31.598 30.5155ZM34.5512 25.3968C33.8949 25.6593 33.173 25.889 32.4512 26.0858C31.9262 24.4452 31.2699 22.7062 30.4824 20.9671C31.2699 19.228 31.959 17.5218 32.4512 15.8812C36.9793 17.1937 39.7027 19.1624 39.7027 20.9999C39.7027 22.5421 37.7996 24.1827 34.5512 25.3968Z" fill="#61DAFB"/>
</svg>
