<svg width="61" height="60" viewBox="0 0 61 60" fill="none" xmlns="http://www.w3.org/2000/svg">
<path d="M30.2656 35.3438C33.2169 35.3438 35.6094 32.9513 35.6094 30C35.6094 27.0487 33.2169 24.6562 30.2656 24.6562C27.3144 24.6562 24.9219 27.0487 24.9219 30C24.9219 32.9513 27.3144 35.3438 30.2656 35.3438Z" fill="#61DAFB"/>
<path d="M50.5605 21.1875C49.5293 20.8125 48.4512 20.4375 47.3262 20.1094C47.6074 18.9844 47.8418 17.8594 48.0293 16.7812C49.0137 10.5937 47.9355 6.23437 44.9355 4.54687C44.0449 4.03125 43.0605 3.79688 41.9355 3.79688C38.6543 3.79688 34.4824 6.23437 30.2637 10.3125C26.0449 6.23437 21.873 3.79688 18.5918 3.79688C17.4668 3.79688 16.4824 4.03125 15.5918 4.54687C12.5918 6.28125 11.5137 10.6406 12.498 16.7812C12.6855 17.8594 12.9199 18.9844 13.2012 20.1094C12.0762 20.4375 10.998 20.7656 9.9668 21.1875C4.10742 23.4375 0.919922 26.5313 0.919922 30C0.919922 33.4688 4.1543 36.5625 9.9668 38.8125C10.998 39.1875 12.0762 39.5625 13.2012 39.8906C12.9199 41.0156 12.6855 42.1406 12.498 43.2187C11.5137 49.4062 12.5918 53.7656 15.5918 55.4531C16.4824 55.9688 17.4668 56.2031 18.5918 56.2031C21.9199 56.2031 26.0918 53.7656 30.2637 49.6875C34.4824 53.7656 38.6543 56.2031 41.9355 56.2031C43.0605 56.2031 44.0449 55.9688 44.9355 55.4531C47.9355 53.7188 49.0137 49.3594 48.0293 43.2187C47.8418 42.1406 47.6074 41.0156 47.3262 39.8906C48.4512 39.5625 49.5293 39.2344 50.5605 38.8125C56.4199 36.5625 59.6074 33.4688 59.6074 30C59.6074 26.5313 56.4199 23.4375 50.5605 21.1875ZM43.623 6.89062C45.5449 8.01562 46.2012 11.4844 45.4043 16.4062C45.2637 17.3906 45.0293 18.4219 44.748 19.5C42.3105 18.9375 39.7324 18.5625 37.0137 18.3281C35.4199 16.0781 33.7793 14.0625 32.1387 12.2344C35.6074 8.8125 39.123 6.46875 41.9824 6.46875C42.5918 6.46875 43.1543 6.60937 43.623 6.89062ZM38.373 34.6875C37.5293 36.1875 36.5449 37.6875 35.5137 39.1875C33.7793 39.3281 32.0449 39.375 30.2637 39.375C28.4355 39.375 26.7012 39.3281 25.0137 39.1875C23.9824 37.6875 23.0449 36.1875 22.2012 34.6875C21.3105 33.1406 20.4668 31.5469 19.7168 30C20.4668 28.4531 21.3105 26.8594 22.2012 25.3125C23.0449 23.8125 24.0293 22.3125 25.0605 20.8125C26.7949 20.6719 28.5293 20.625 30.3105 20.625C32.1387 20.625 33.873 20.6719 35.5605 20.8125C36.5918 22.3125 37.5293 23.8125 38.373 25.3125C39.2637 26.8594 40.1074 28.4531 40.8574 30C40.0605 31.5469 39.2637 33.0938 38.373 34.6875ZM42.2637 33.1406C42.9668 34.7812 43.5293 36.375 44.0449 37.9688C42.4512 38.3438 40.7637 38.625 38.9824 38.8594C39.5449 37.9688 40.1543 37.0313 40.6699 36.0469C41.2324 35.0625 41.748 34.0781 42.2637 33.1406ZM30.2637 45.8438C29.1387 44.625 28.0605 43.3125 27.0293 41.9531C28.1074 42 29.1855 42.0469 30.2637 42.0469C31.3418 42.0469 32.4199 42 33.498 41.9531C32.4668 43.3125 31.3887 44.625 30.2637 45.8438ZM21.5449 38.8125C19.7637 38.5781 18.0762 38.2969 16.4824 37.9219C16.998 36.375 17.5605 34.7344 18.2637 33.0938C18.7793 34.0312 19.2949 35.0156 19.8574 35.9531C20.4199 36.9844 20.9824 37.875 21.5449 38.8125ZM18.2637 26.8594C17.5605 25.2187 16.998 23.625 16.4824 22.0313C18.0762 21.6563 19.7637 21.375 21.5449 21.1406C20.9824 22.0312 20.373 22.9688 19.8574 23.9531C19.2949 24.9375 18.7793 25.9219 18.2637 26.8594ZM30.2637 14.1563C31.3887 15.375 32.4668 16.6875 33.498 18.0469C32.4199 18 31.3418 17.9531 30.2637 17.9531C29.1855 17.9531 28.1074 18 27.0293 18.0469C28.0605 16.6875 29.1387 15.375 30.2637 14.1563ZM40.6699 24L38.9824 21.1875C40.7637 21.4219 42.4512 21.7031 44.0449 22.0781C43.5293 23.625 42.9668 25.2656 42.2637 26.9063C41.748 25.9219 41.2324 24.9375 40.6699 24ZM15.123 16.4062C14.3262 11.4844 14.9824 8.01562 16.9043 6.89062C17.373 6.60937 17.9355 6.46875 18.5449 6.46875C21.3574 6.46875 24.873 8.76562 28.3887 12.2344C26.748 14.0156 25.1074 16.0781 23.5137 18.3281C20.7949 18.5625 18.2168 18.9844 15.7793 19.5C15.498 18.4219 15.3105 17.3906 15.123 16.4062ZM3.54492 30C3.54492 27.7969 6.2168 25.4531 10.9043 23.7188C11.8418 23.3437 12.873 23.0156 13.9043 22.7344C14.6543 25.0781 15.5918 27.5625 16.7168 30.0469C15.5918 32.5313 14.6074 34.9688 13.9043 37.3125C7.43555 35.4375 3.54492 32.625 3.54492 30ZM16.9043 53.1094C14.9824 51.9844 14.3262 48.5156 15.123 43.5938C15.2637 42.6094 15.498 41.5781 15.7793 40.5C18.2168 41.0625 20.7949 41.4375 23.5137 41.6719C25.1074 43.9219 26.748 45.9375 28.3887 47.7656C24.9199 51.1875 21.4043 53.5312 18.5449 53.5312C17.9355 53.5312 17.373 53.3906 16.9043 53.1094ZM45.4043 43.5938C46.2012 48.5156 45.5449 51.9844 43.623 53.1094C43.1543 53.3906 42.5918 53.5312 41.9824 53.5312C39.1699 53.5312 35.6543 51.2344 32.1387 47.7656C33.7793 45.9844 35.4199 43.9219 37.0137 41.6719C39.7324 41.4375 42.3105 41.0156 44.748 40.5C45.0293 41.5781 45.2168 42.6094 45.4043 43.5938ZM49.623 36.2813C48.6855 36.6563 47.6543 36.9844 46.623 37.2656C45.873 34.9219 44.9355 32.4375 43.8105 29.9531C44.9355 27.4688 45.9199 25.0313 46.623 22.6875C53.0918 24.5625 56.9824 27.375 56.9824 30C56.9824 32.2031 54.2637 34.5469 49.623 36.2813Z" fill="#61DAFB"/>
</svg>
