<svg width="42" height="42" viewBox="0 0 42 42" fill="none" xmlns="http://www.w3.org/2000/svg">
<path d="M21 8.40088C15.3999 8.40088 11.9011 11.1998 10.5 16.7999C12.5993 14.0007 15.0501 12.951 17.8493 13.6509C19.4476 14.0492 20.5898 15.2082 21.8548 16.4924C23.9134 18.5816 26.2963 21.0002 31.5 21.0002C37.0998 21.0002 40.5989 18.201 42 12.5996C39.9 15.4002 37.4501 16.4504 34.6503 15.7502C33.0524 15.3516 31.9115 14.1929 30.6449 12.9087C28.5876 10.8195 26.2054 8.40088 21 8.40088ZM10.5 21.0002C4.90022 21.0002 1.40109 23.7995 0 29.4009C2.09978 26.6002 4.54956 25.55 7.34934 26.2502C8.94764 26.6489 10.0898 27.8075 11.3548 29.0918C13.4134 31.181 15.7963 33.5996 21 33.5996C26.5998 33.5996 30.0989 30.8007 31.5 25.2006C29.4 27.9999 26.9501 29.0496 24.1503 28.3496C22.5524 27.9512 21.4115 26.7923 20.1449 25.508C18.0876 23.4188 15.7054 21.0002 10.5 21.0002Z" fill="#38BDF8"/>
</svg>
