<svg width="61" height="60" viewBox="0 0 61 60" fill="none" xmlns="http://www.w3.org/2000/svg">
<g clip-path="url(#clip0_201_1761)">
<path d="M30.2637 12.001C22.2635 12.001 17.2652 15.9994 15.2637 23.9996C18.2627 20.0007 21.7638 18.5011 25.7627 19.501C28.046 20.07 29.6777 21.7257 31.4848 23.5604C34.4257 26.5449 37.8298 30 45.2637 30C53.2634 30 58.2621 26.0011 60.2637 17.9991C57.2637 22 53.7638 23.5004 49.7641 22.5C47.4813 21.9305 45.8515 20.2754 44.0421 18.4407C41.103 15.4561 37.6999 12.001 30.2637 12.001ZM15.2637 30C7.26398 30 2.26523 33.9989 0.263672 42.001C3.26336 38 6.76305 36.4997 10.7627 37.5C13.046 38.0696 14.6777 39.7247 16.4848 41.5594C19.4257 44.544 22.8298 47.9991 30.2637 47.9991C38.2634 47.9991 43.2621 44.0007 45.2637 36.0005C42.2637 39.9996 38.7638 41.4991 34.7641 40.4991C32.4813 39.93 30.8515 38.2744 29.0421 36.4397C26.103 33.4552 22.6999 30 15.2637 30Z" fill="#38BDF8"/>
</g>
<defs>
<clipPath id="clip0_201_1761">
<rect width="60" height="60" fill="white" transform="translate(0.263672)"/>
</clipPath>
</defs>
</svg>
