<svg width="42" height="42" viewBox="0 0 42 42" fill="none" xmlns="http://www.w3.org/2000/svg">
<g clip-path="url(#clip0_217_2003)">
<mask id="mask0_217_2003" style="mask-type:luminance" maskUnits="userSpaceOnUse" x="0" y="0" width="42" height="42">
<path d="M29.6671 41.4428C30 41.5726 30.356 41.6325 30.7131 41.6188C31.0701 41.6051 31.4205 41.518 31.7425 41.363L40.3559 37.2185C40.7995 37.0049 41.1738 36.6704 41.4358 36.2535C41.6977 35.8366 41.8366 35.3543 41.8366 34.8619V6.75865C41.8366 6.26632 41.6977 5.78398 41.4357 5.36712C41.1738 4.95026 40.7995 4.6158 40.3559 4.40222L31.7426 0.257508C31.2559 0.0233824 30.7085 -0.0536893 30.176 0.0369565C29.6436 0.127602 29.1525 0.381485 28.7706 0.763477L12.2812 15.8072L5.09855 10.3551C4.77456 10.1091 4.37469 9.98437 3.96833 10.0024C3.56196 10.0205 3.17475 10.1803 2.87386 10.454L0.570261 12.5496C-0.189348 13.2404 -0.190168 14.4355 0.568292 15.1275L6.79725 20.8103L0.568292 26.4929C-0.190168 27.1851 -0.189348 28.38 0.570261 29.071L2.87386 31.1664C3.17473 31.4401 3.56193 31.5999 3.9683 31.618C4.37466 31.6361 4.77454 31.5114 5.09855 31.2655L12.2812 25.8132L28.7706 40.8569C29.0256 41.1123 29.3309 41.3118 29.6671 41.4428M31.3838 11.3129L18.8721 20.8103L31.3838 30.3075V11.3129Z" fill="white"/>
</mask>
<g mask="url(#mask0_217_2003)">
<path d="M40.3815 4.40892L31.7613 0.258465C31.2745 0.0240772 30.7268 -0.0531987 30.1941 0.0373308C29.6615 0.12786 29.1701 0.381719 28.788 0.763778L0.5686 26.4932C-0.190353 27.1854 -0.189369 28.3803 0.570569 29.0713L2.87565 31.1667C3.17678 31.4405 3.56423 31.6003 3.97083 31.6184C4.37743 31.6365 4.77754 31.5118 5.10181 31.2658L39.0844 5.48566C40.2245 4.62089 41.862 5.43398 41.862 6.86493V6.76486C41.8619 6.27263 41.723 5.79041 41.4611 5.37364C41.1992 4.95687 40.825 4.62248 40.3815 4.40892Z" fill="#0065A9"/>
</g>
<mask id="mask1_217_2003" style="mask-type:luminance" maskUnits="userSpaceOnUse" x="0" y="0" width="42" height="42">
<path d="M29.6671 41.4428C30 41.5726 30.356 41.6325 30.7131 41.6188C31.0701 41.6051 31.4205 41.518 31.7425 41.363L40.3559 37.2185C40.7995 37.0049 41.1738 36.6704 41.4358 36.2535C41.6977 35.8366 41.8366 35.3543 41.8366 34.8619V6.75865C41.8366 6.26632 41.6977 5.78398 41.4357 5.36712C41.1738 4.95026 40.7995 4.6158 40.3559 4.40222L31.7426 0.257508C31.2559 0.0233824 30.7085 -0.0536893 30.176 0.0369565C29.6436 0.127602 29.1525 0.381485 28.7706 0.763477L12.2812 15.8072L5.09855 10.3551C4.77456 10.1091 4.37469 9.98437 3.96833 10.0024C3.56196 10.0205 3.17475 10.1803 2.87386 10.454L0.570261 12.5496C-0.189348 13.2404 -0.190168 14.4355 0.568292 15.1275L6.79725 20.8103L0.568292 26.4929C-0.190168 27.1851 -0.189348 28.38 0.570261 29.071L2.87386 31.1664C3.17473 31.4401 3.56193 31.5999 3.9683 31.618C4.37466 31.6361 4.77454 31.5114 5.09855 31.2655L12.2812 25.8132L28.7706 40.8569C29.0256 41.1123 29.3309 41.3118 29.6671 41.4428M31.3838 11.3129L18.8721 20.8103L31.3838 30.3075V11.3129Z" fill="white"/>
</mask>
<g mask="url(#mask1_217_2003)">
<path d="M40.3815 37.2121L31.7613 41.3625C31.2744 41.5968 30.7268 41.674 30.1942 41.5835C29.6615 41.493 29.1701 41.2392 28.788 40.8572L0.5686 15.1278C-0.190353 14.4358 -0.189369 13.2408 0.570569 12.5499L2.87565 10.4543C3.1768 10.1805 3.56426 10.0208 3.97086 10.0027C4.37746 9.98463 4.77756 10.1094 5.10181 10.3554L39.0844 36.1354C40.2245 37.0001 41.862 36.187 41.862 34.7559V34.8562C41.8619 35.3484 41.723 35.8306 41.4611 36.2474C41.1992 36.6641 40.825 36.9985 40.3815 37.2121Z" fill="#007ACC"/>
</g>
<mask id="mask2_217_2003" style="mask-type:luminance" maskUnits="userSpaceOnUse" x="0" y="0" width="42" height="42">
<path d="M29.6671 41.4428C30 41.5726 30.356 41.6325 30.7131 41.6188C31.0701 41.6051 31.4205 41.518 31.7425 41.363L40.3559 37.2185C40.7995 37.0049 41.1738 36.6704 41.4358 36.2535C41.6977 35.8366 41.8366 35.3543 41.8366 34.8619V6.75865C41.8366 6.26632 41.6977 5.78398 41.4357 5.36712C41.1738 4.95026 40.7995 4.6158 40.3559 4.40222L31.7426 0.257508C31.2559 0.0233824 30.7085 -0.0536893 30.176 0.0369565C29.6436 0.127602 29.1525 0.381485 28.7706 0.763477L12.2812 15.8072L5.09855 10.3551C4.77456 10.1091 4.37469 9.98437 3.96833 10.0024C3.56196 10.0205 3.17475 10.1803 2.87386 10.454L0.570261 12.5496C-0.189348 13.2404 -0.190168 14.4355 0.568292 15.1275L6.79725 20.8103L0.568292 26.4929C-0.190168 27.1851 -0.189348 28.38 0.570261 29.071L2.87386 31.1664C3.17473 31.4401 3.56193 31.5999 3.9683 31.618C4.37466 31.6361 4.77454 31.5114 5.09855 31.2655L12.2812 25.8132L28.7706 40.8569C29.0256 41.1123 29.3309 41.3118 29.6671 41.4428M31.3838 11.3129L18.8721 20.8103L31.3838 30.3075V11.3129Z" fill="white"/>
</mask>
<g mask="url(#mask2_217_2003)">
<path d="M31.7334 41.366C31.2464 41.6003 30.6987 41.6774 30.166 41.5868C29.6333 41.4962 29.1419 41.2423 28.7598 40.8602C29.7246 41.8249 31.3746 41.1416 31.3746 39.7769V1.84974C31.3746 0.485066 29.7246 -0.198254 28.7598 0.766597C29.1419 0.384466 29.6332 0.130514 30.166 0.0398696C30.6987 -0.0507749 31.2464 0.0263685 31.7334 0.260629L40.3521 4.40534C40.7958 4.6188 41.1703 4.95321 41.4324 5.37008C41.6945 5.78696 41.8335 6.26935 41.8336 6.76177V34.8652C41.8336 35.8701 41.2577 36.7862 40.3521 37.2216L31.7334 41.366Z" fill="#1F9CF0"/>
</g>
</g>
<defs>
<clipPath id="clip0_217_2003">
<rect width="42" height="41.6719" fill="white"/>
</clipPath>
</defs>
</svg>
