<svg width="61" height="60" viewBox="0 0 61 60" fill="none" xmlns="http://www.w3.org/2000/svg">
<g clip-path="url(#clip0_201_1767)">
<mask id="mask0_201_1767" style="mask-type:luminance" maskUnits="userSpaceOnUse" x="0" y="0" width="61" height="60">
<path d="M42.9789 59.6701C43.4582 59.8571 43.9709 59.9433 44.485 59.9236C44.999 59.9038 45.5036 59.7785 45.9671 59.5553L58.3689 53.5879C59.0076 53.2804 59.5466 52.7988 59.9237 52.1986C60.3009 51.5983 60.5009 50.9038 60.5008 50.1949V9.73124C60.5009 9.02237 60.3008 8.3279 59.9237 7.72769C59.5465 7.12748 59.0076 6.64592 58.3689 6.3384L45.9673 0.370766C45.2666 0.0336664 44.4783 -0.077303 43.7117 0.0532108C42.9451 0.183725 42.238 0.549269 41.6882 1.09927L17.9464 22.7595L7.60467 14.9094C7.13818 14.5553 6.56244 14.3757 5.97735 14.4017C5.39226 14.4277 4.83474 14.6578 4.40152 15.0519L1.08475 18.0691C-0.00895542 19.0638 -0.0101366 20.7845 1.08191 21.7808L10.0505 29.963L1.08191 38.145C-0.0101366 39.1416 -0.00895542 40.862 1.08475 41.857L4.40152 44.874C4.83471 45.2681 5.39221 45.4982 5.9773 45.5243C6.5624 45.5503 7.13815 45.3708 7.60467 45.0167L17.9464 37.1664L41.6882 58.8266C42.0553 59.1943 42.4948 59.4816 42.9789 59.6701M45.4507 16.2885L27.4361 29.963L45.4507 43.6374V16.2885Z" fill="white"/>
</mask>
<g mask="url(#mask0_201_1767)">
<path d="M58.4057 6.34832L45.9942 0.372417C45.2933 0.0349404 44.5048 -0.076323 43.7378 0.0540232C42.9708 0.184369 42.2633 0.54988 41.7132 1.09998L1.08235 38.1457C-0.0104021 39.1423 -0.00898484 40.8627 1.08519 41.8577L4.40409 44.8747C4.83766 45.2689 5.39552 45.499 5.98095 45.5251C6.56638 45.5511 7.14247 45.3715 7.60936 45.0174L56.5382 7.89864C58.1797 6.65352 60.5374 7.82423 60.5374 9.88454V9.74045C60.5373 9.03173 60.3372 8.33742 59.9602 7.73735C59.5831 7.13728 59.0443 6.65582 58.4057 6.34832Z" fill="#0065A9"/>
</g>
<mask id="mask1_201_1767" style="mask-type:luminance" maskUnits="userSpaceOnUse" x="0" y="0" width="61" height="60">
<path d="M42.9789 59.6701C43.4582 59.8571 43.9709 59.9433 44.485 59.9236C44.999 59.9038 45.5036 59.7785 45.9671 59.5553L58.3689 53.5879C59.0076 53.2804 59.5466 52.7988 59.9237 52.1986C60.3009 51.5983 60.5009 50.9038 60.5008 50.1949V9.73124C60.5009 9.02237 60.3008 8.3279 59.9237 7.72769C59.5465 7.12748 59.0076 6.64592 58.3689 6.3384L45.9673 0.370766C45.2666 0.0336664 44.4783 -0.077303 43.7117 0.0532108C42.9451 0.183725 42.238 0.549269 41.6882 1.09927L17.9464 22.7595L7.60467 14.9094C7.13818 14.5553 6.56244 14.3757 5.97735 14.4017C5.39226 14.4277 4.83474 14.6578 4.40152 15.0519L1.08475 18.0691C-0.00895542 19.0638 -0.0101366 20.7845 1.08191 21.7808L10.0505 29.963L1.08191 38.145C-0.0101366 39.1416 -0.00895542 40.862 1.08475 41.857L4.40152 44.874C4.83471 45.2681 5.39221 45.4982 5.9773 45.5243C6.5624 45.5503 7.13815 45.3708 7.60467 45.0167L17.9464 37.1664L41.6882 58.8266C42.0553 59.1943 42.4948 59.4816 42.9789 59.6701M45.4507 16.2885L27.4361 29.963L45.4507 43.6374V16.2885Z" fill="white"/>
</mask>
<g mask="url(#mask1_201_1767)">
<path d="M58.4057 53.5785L45.9942 59.5544C45.2932 59.8917 44.5048 60.0029 43.7378 59.8726C42.9709 59.7422 42.2634 59.3768 41.7132 58.8269L1.08235 21.7811C-0.0104021 20.7847 -0.00898484 19.0641 1.08519 18.0694L4.40409 15.0522C4.83769 14.658 5.39556 14.4279 5.98099 14.4019C6.56642 14.3759 7.1425 14.5555 7.60936 14.9097L56.5382 52.0282C58.1797 53.2733 60.5374 52.1026 60.5374 50.0421V50.1864C60.5373 50.8951 60.3372 51.5894 59.9602 52.1895C59.5831 52.7896 59.0443 53.271 58.4057 53.5785Z" fill="#007ACC"/>
</g>
<mask id="mask2_201_1767" style="mask-type:luminance" maskUnits="userSpaceOnUse" x="0" y="0" width="61" height="60">
<path d="M42.9789 59.6701C43.4582 59.8571 43.9709 59.9433 44.485 59.9236C44.999 59.9038 45.5036 59.7785 45.9671 59.5553L58.3689 53.5879C59.0076 53.2804 59.5466 52.7988 59.9237 52.1986C60.3009 51.5983 60.5009 50.9038 60.5008 50.1949V9.73124C60.5009 9.02237 60.3008 8.3279 59.9237 7.72769C59.5465 7.12748 59.0076 6.64592 58.3689 6.3384L45.9673 0.370766C45.2666 0.0336664 44.4783 -0.077303 43.7117 0.0532108C42.9451 0.183725 42.238 0.549269 41.6882 1.09927L17.9464 22.7595L7.60467 14.9094C7.13818 14.5553 6.56244 14.3757 5.97735 14.4017C5.39226 14.4277 4.83474 14.6578 4.40152 15.0519L1.08475 18.0691C-0.00895542 19.0638 -0.0101366 20.7845 1.08191 21.7808L10.0505 29.963L1.08191 38.145C-0.0101366 39.1416 -0.00895542 40.862 1.08475 41.857L4.40152 44.874C4.83471 45.2681 5.39221 45.4982 5.9773 45.5243C6.5624 45.5503 7.13815 45.3708 7.60467 45.0167L17.9464 37.1664L41.6882 58.8266C42.0553 59.1943 42.4948 59.4816 42.9789 59.6701M45.4507 16.2885L27.4361 29.963L45.4507 43.6374V16.2885Z" fill="white"/>
</mask>
<g mask="url(#mask2_201_1767)">
<path d="M45.9553 59.5593C45.2542 59.8966 44.4656 60.0077 43.6986 59.8772C42.9315 59.7468 42.224 59.3812 41.6738 58.831C43.063 60.22 45.4387 59.2361 45.4387 57.2712V2.66298C45.4387 0.698096 43.063 -0.285762 41.6738 1.10345C42.224 0.55325 42.9315 0.187605 43.6985 0.057093C44.4655 -0.0734187 45.2542 0.0376539 45.9553 0.374946L58.3647 6.34258C59.0036 6.64993 59.5428 7.13142 59.9201 7.73164C60.2975 8.33186 60.4977 9.02643 60.4978 9.73542V50.1993C60.4978 51.6461 59.6686 52.9652 58.3647 53.5921L45.9553 59.5593Z" fill="#1F9CF0"/>
</g>
</g>
<defs>
<clipPath id="clip0_201_1767">
<rect width="60.4724" height="60" fill="white" transform="translate(0.263672)"/>
</clipPath>
</defs>
</svg>
