<svg width="61" height="60" viewBox="0 0 61 60" fill="none" xmlns="http://www.w3.org/2000/svg">
<g clip-path="url(#clip0_201_1783)">
<path d="M46.6738 0H14.7988C7.03232 0 0.736328 6.296 0.736328 14.0625V45.9375C0.736328 53.704 7.03232 60 14.7988 60H46.6738C54.4403 60 60.7363 53.704 60.7363 45.9375V14.0625C60.7363 6.296 54.4403 0 46.6738 0Z" fill="#0073AA"/>
<path d="M10.6328 29.9982C10.6328 37.9564 15.2577 44.8339 21.9641 48.0932L12.3735 21.816C11.2241 24.3906 10.631 27.1787 10.6328 29.9982ZM44.3111 28.9836C44.3111 26.499 43.4186 24.7782 42.6531 23.4388C41.6338 21.7827 40.6785 20.3802 40.6785 18.7241C40.6785 16.8758 42.0803 15.1555 44.0547 15.1555C44.144 15.1555 44.2284 15.1665 44.3153 15.1714C40.7383 11.8944 35.9727 9.89355 30.7382 9.89355C23.7145 9.89355 17.5347 13.4973 13.9398 18.9559C14.4114 18.97 14.856 18.98 15.2336 18.98C17.3366 18.98 20.5919 18.7246 20.5919 18.7246C21.6756 18.6608 21.8036 20.2527 20.7208 20.3809C20.7208 20.3809 19.6316 20.5091 18.4197 20.5726L25.7411 42.3503L30.141 29.1543L27.0086 20.5719C25.926 20.5084 24.9004 20.3802 24.9004 20.3802C23.8169 20.3167 23.9439 18.6601 25.0274 18.7241C25.0274 18.7241 28.3476 18.9791 30.3231 18.9791C32.4259 18.9791 35.6814 18.7241 35.6814 18.7241C36.7661 18.6601 36.8934 20.252 35.8103 20.3802C35.8103 20.3802 34.7188 20.5084 33.5092 20.5719L40.7751 42.1846L42.7804 35.4833C43.6497 32.7022 44.3111 30.7049 44.3111 28.9836Z" fill="white"/>
<path d="M31.0851 31.7572L25.0527 49.2861C26.897 49.8293 28.8097 50.1051 30.7323 50.1053C33.0063 50.106 35.2638 49.7206 37.4087 48.9655C37.353 48.8776 37.3051 48.7849 37.2658 48.6885L31.0851 31.7572ZM48.374 20.3525C48.4653 21.0378 48.5105 21.7284 48.5095 22.4197C48.5095 24.46 48.1284 26.7536 46.9806 29.6214L40.8393 47.3774C46.8166 43.8918 50.837 37.4162 50.837 29.9989C50.8373 26.5032 49.9445 23.2161 48.374 20.3525Z" fill="white"/>
<path d="M30.7359 6.5625C17.8129 6.5625 7.29883 17.0759 7.29883 29.9986C7.29883 42.923 17.8129 53.4359 30.7359 53.4359C43.6581 53.4359 54.1738 42.923 54.1738 29.9986C54.1734 17.0759 43.6581 6.5625 30.7359 6.5625ZM30.7359 52.3617C18.4054 52.3617 8.37344 42.3295 8.37344 29.9986C8.37344 17.6684 18.4052 7.63711 30.7359 7.63711C43.0656 7.63711 53.0969 17.6684 53.0969 29.9986C53.0969 42.3295 43.0656 52.3617 30.7359 52.3617Z" fill="white"/>
</g>
<defs>
<clipPath id="clip0_201_1783">
<rect width="60" height="60" fill="white" transform="translate(0.736328)"/>
</clipPath>
</defs>
</svg>
