<svg width="42" height="42" viewBox="0 0 42 42" fill="none" xmlns="http://www.w3.org/2000/svg">
<g clip-path="url(#clip0_217_2019)">
<path d="M32.1562 0H9.84375C4.4072 0 0 4.4072 0 9.84375V32.1562C0 37.5928 4.4072 42 9.84375 42H32.1562C37.5928 42 42 37.5928 42 32.1562V9.84375C42 4.4072 37.5928 0 32.1562 0Z" fill="#0073AA"/>
<path d="M6.92774 20.9986C6.92774 26.5693 10.1652 31.3836 14.8597 33.665L8.14623 15.271C7.34165 17.0732 6.92644 19.0249 6.92774 20.9986ZM30.5025 20.2883C30.5025 18.5491 29.8778 17.3446 29.342 16.407C28.6284 15.2477 27.9597 14.2659 27.9597 13.1067C27.9597 11.8129 28.941 10.6087 30.323 10.6087C30.3856 10.6087 30.4446 10.6164 30.5055 10.6198C28.0016 8.32589 24.6657 6.92529 21.0015 6.92529C16.0849 6.92529 11.759 9.44792 9.24266 13.2689C9.57275 13.2788 9.88398 13.2858 10.1483 13.2858C11.6204 13.2858 13.8991 13.107 13.8991 13.107C14.6577 13.0624 14.7473 14.1767 13.9893 14.2664C13.9893 14.2664 13.2269 14.3562 12.3786 14.4006L17.5035 29.645L20.5835 20.4078L18.3908 14.4001C17.633 14.3557 16.915 14.2659 16.915 14.2659C16.1566 14.2215 16.2455 13.0619 17.004 13.1067C17.004 13.1067 19.3281 13.2852 20.711 13.2852C22.1829 13.2852 24.4618 13.1067 24.4618 13.1067C25.221 13.0619 25.3101 14.1762 24.552 14.2659C24.552 14.2659 23.7879 14.3557 22.9412 14.4001L28.0273 29.529L29.431 24.8381C30.0395 22.8914 30.5025 21.4932 30.5025 20.2883Z" fill="white"/>
<path d="M21.2441 22.2299L17.0215 34.5001C18.3125 34.8803 19.6514 35.0734 20.9972 35.0735C22.589 35.074 24.1693 34.8042 25.6707 34.2757C25.6317 34.2141 25.5982 34.1492 25.5706 34.0817L21.2441 22.2299ZM33.3464 14.2466C33.4103 14.7263 33.4419 15.2097 33.4412 15.6936C33.4412 17.1218 33.1744 18.7273 32.371 20.7348L28.0721 33.164C32.2562 30.724 35.0705 26.1912 35.0705 20.9991C35.0707 18.5521 34.4457 16.2511 33.3464 14.2466Z" fill="white"/>
<path d="M20.9997 4.59375C11.9536 4.59375 4.59375 11.9531 4.59375 20.999C4.59375 30.0461 11.9536 37.4051 20.9997 37.4051C30.0453 37.4051 37.4062 30.0461 37.4062 20.999C37.4059 11.9531 30.0453 4.59375 20.9997 4.59375ZM20.9997 36.6532C12.3683 36.6532 5.34598 29.6307 5.34598 20.999C5.34598 12.3679 12.3682 5.34598 20.9997 5.34598C29.6305 5.34598 36.6524 12.3679 36.6524 20.999C36.6524 29.6307 29.6305 36.6532 20.9997 36.6532Z" fill="white"/>
</g>
<defs>
<clipPath id="clip0_217_2019">
<rect width="42" height="42" fill="white"/>
</clipPath>
</defs>
</svg>
